solid Mesh
  facet normal 0.996584 0.000000 0.082580
    outer loop
      vertex 0.508000 -22.000000 0.000000
      vertex 0.501072 -22.000000 0.083614
      vertex 0.508000 -22.100000 0.000000
    endloop
  endfacet
  facet normal 0.996584 0.000000 0.082580
    outer loop
      vertex 0.508000 -22.100000 0.000000
      vertex 0.501072 -22.000000 0.083614
      vertex 0.501072 -22.100000 0.083614
    endloop
  endfacet
  facet normal 0.969400 0.000000 0.245485
    outer loop
      vertex 0.501072 -22.100000 0.083614
      vertex 0.480475 -22.000000 0.164947
      vertex 0.480475 -22.100000 0.164947
    endloop
  endfacet
  facet normal 0.969400 0.000000 0.245485
    outer loop
      vertex 0.501072 -22.000000 0.083614
      vertex 0.480475 -22.000000 0.164947
      vertex 0.501072 -22.100000 0.083614
    endloop
  endfacet
  facet normal 0.915773 0.000000 0.401695
    outer loop
      vertex 0.480475 -22.100000 0.164947
      vertex 0.446773 -22.000000 0.241781
      vertex 0.446773 -22.100000 0.241781
    endloop
  endfacet
  facet normal 0.915773 0.000000 0.401695
    outer loop
      vertex 0.480475 -22.000000 0.164947
      vertex 0.446773 -22.000000 0.241781
      vertex 0.480475 -22.100000 0.164947
    endloop
  endfacet
  facet normal 0.837166 0.000000 0.546948
    outer loop
      vertex 0.446773 -22.100000 0.241781
      vertex 0.400883 -22.000000 0.312020
      vertex 0.400883 -22.100000 0.312020
    endloop
  endfacet
  facet normal 0.837166 0.000000 0.546948
    outer loop
      vertex 0.446773 -22.000000 0.241781
      vertex 0.400883 -22.000000 0.312020
      vertex 0.446773 -22.100000 0.241781
    endloop
  endfacet
  facet normal 0.735724 0.000000 0.677282
    outer loop
      vertex 0.400883 -22.000000 0.312020
      vertex 0.344059 -22.000000 0.373748
      vertex 0.400883 -22.100000 0.312020
    endloop
  endfacet
  facet normal 0.735724 0.000000 0.677282
    outer loop
      vertex 0.400883 -22.100000 0.312020
      vertex 0.344059 -22.000000 0.373748
      vertex 0.344059 -22.100000 0.373748
    endloop
  endfacet
  facet normal 0.614213 0.000000 0.789140
    outer loop
      vertex 0.344059 -22.100000 0.373748
      vertex 0.277850 -22.000000 0.425281
      vertex 0.277850 -22.100000 0.425281
    endloop
  endfacet
  facet normal 0.614213 0.000000 0.789140
    outer loop
      vertex 0.344059 -22.000000 0.373748
      vertex 0.277850 -22.000000 0.425281
      vertex 0.344059 -22.100000 0.373748
    endloop
  endfacet
  facet normal 0.475947 0.000000 0.879474
    outer loop
      vertex 0.277850 -22.100000 0.425281
      vertex 0.204061 -22.000000 0.465213
      vertex 0.204061 -22.100000 0.465213
    endloop
  endfacet
  facet normal 0.475947 0.000000 0.879474
    outer loop
      vertex 0.277850 -22.000000 0.425281
      vertex 0.204061 -22.000000 0.465213
      vertex 0.277850 -22.100000 0.425281
    endloop
  endfacet
  facet normal 0.324699 0.000000 0.945817
    outer loop
      vertex 0.204061 -22.100000 0.465213
      vertex 0.124707 -22.000000 0.492455
      vertex 0.124707 -22.100000 0.492455
    endloop
  endfacet
  facet normal 0.324699 0.000000 0.945817
    outer loop
      vertex 0.204061 -22.000000 0.465213
      vertex 0.124707 -22.000000 0.492455
      vertex 0.204061 -22.100000 0.465213
    endloop
  endfacet
  facet normal 0.164595 0.000000 0.986361
    outer loop
      vertex 0.124707 -22.000000 0.492455
      vertex 0.041950 -22.000000 0.506265
      vertex 0.124707 -22.100000 0.492455
    endloop
  endfacet
  facet normal 0.164595 0.000000 0.986361
    outer loop
      vertex 0.124707 -22.100000 0.492455
      vertex 0.041950 -22.000000 0.506265
      vertex 0.041950 -22.100000 0.506265
    endloop
  endfacet
  facet normal 0.000000 0.000000 1.000000
    outer loop
      vertex 0.041950 -22.100000 0.506265
      vertex -0.041950 -22.000000 0.506265
      vertex -0.041950 -22.100000 0.506265
    endloop
  endfacet
  facet normal 0.000000 0.000000 1.000000
    outer loop
      vertex 0.041950 -22.000000 0.506265
      vertex -0.041950 -22.000000 0.506265
      vertex 0.041950 -22.100000 0.506265
    endloop
  endfacet
  facet normal -0.164595 0.000000 0.986361
    outer loop
      vertex -0.041950 -22.100000 0.506265
      vertex -0.124707 -22.000000 0.492455
      vertex -0.124707 -22.100000 0.492455
    endloop
  endfacet
  facet normal -0.164595 0.000000 0.986361
    outer loop
      vertex -0.041950 -22.000000 0.506265
      vertex -0.124707 -22.000000 0.492455
      vertex -0.041950 -22.100000 0.506265
    endloop
  endfacet
  facet normal -0.324699 0.000000 0.945817
    outer loop
      vertex -0.124707 -22.100000 0.492455
      vertex -0.204061 -22.000000 0.465213
      vertex -0.204061 -22.100000 0.465213
    endloop
  endfacet
  facet normal -0.324699 0.000000 0.945817
    outer loop
      vertex -0.124707 -22.000000 0.492455
      vertex -0.204061 -22.000000 0.465213
      vertex -0.124707 -22.100000 0.492455
    endloop
  endfacet
  facet normal -0.475947 0.000000 0.879474
    outer loop
      vertex -0.204061 -22.100000 0.465213
      vertex -0.277850 -22.000000 0.425281
      vertex -0.277850 -22.100000 0.425281
    endloop
  endfacet
  facet normal -0.475947 0.000000 0.879474
    outer loop
      vertex -0.204061 -22.000000 0.465213
      vertex -0.277850 -22.000000 0.425281
      vertex -0.204061 -22.100000 0.465213
    endloop
  endfacet
  facet normal -0.614213 0.000000 0.789140
    outer loop
      vertex -0.277850 -22.100000 0.425281
      vertex -0.344059 -22.000000 0.373748
      vertex -0.344059 -22.100000 0.373748
    endloop
  endfacet
  facet normal -0.614213 0.000000 0.789140
    outer loop
      vertex -0.277850 -22.000000 0.425281
      vertex -0.344059 -22.000000 0.373748
      vertex -0.277850 -22.100000 0.425281
    endloop
  endfacet
  facet normal -0.735724 0.000000 0.677282
    outer loop
      vertex -0.344059 -22.100000 0.373748
      vertex -0.400883 -22.000000 0.312020
      vertex -0.400883 -22.100000 0.312020
    endloop
  endfacet
  facet normal -0.735724 0.000000 0.677282
    outer loop
      vertex -0.344059 -22.000000 0.373748
      vertex -0.400883 -22.000000 0.312020
      vertex -0.344059 -22.100000 0.373748
    endloop
  endfacet
  facet normal -0.837166 0.000000 0.546948
    outer loop
      vertex -0.400883 -22.100000 0.312020
      vertex -0.446773 -22.000000 0.241781
      vertex -0.446773 -22.100000 0.241781
    endloop
  endfacet
  facet normal -0.837166 0.000000 0.546948
    outer loop
      vertex -0.400883 -22.000000 0.312020
      vertex -0.446773 -22.000000 0.241781
      vertex -0.400883 -22.100000 0.312020
    endloop
  endfacet
  facet normal -0.915773 0.000000 0.401695
    outer loop
      vertex -0.446773 -22.100000 0.241781
      vertex -0.480475 -22.000000 0.164947
      vertex -0.480475 -22.100000 0.164947
    endloop
  endfacet
  facet normal -0.915773 0.000000 0.401695
    outer loop
      vertex -0.446773 -22.000000 0.241781
      vertex -0.480475 -22.000000 0.164947
      vertex -0.446773 -22.100000 0.241781
    endloop
  endfacet
  facet normal -0.969400 0.000000 0.245485
    outer loop
      vertex -0.480475 -22.100000 0.164947
      vertex -0.501072 -22.000000 0.083614
      vertex -0.501072 -22.100000 0.083614
    endloop
  endfacet
  facet normal -0.969400 0.000000 0.245485
    outer loop
      vertex -0.480475 -22.000000 0.164947
      vertex -0.501072 -22.000000 0.083614
      vertex -0.480475 -22.100000 0.164947
    endloop
  endfacet
  facet normal -0.996584 0.000000 0.082580
    outer loop
      vertex -0.501072 -22.100000 0.083614
      vertex -0.508000 -22.000000 0.000000
      vertex -0.508000 -22.100000 0.000000
    endloop
  endfacet
  facet normal -0.996584 0.000000 0.082580
    outer loop
      vertex -0.501072 -22.000000 0.083614
      vertex -0.508000 -22.000000 0.000000
      vertex -0.501072 -22.100000 0.083614
    endloop
  endfacet
  facet normal -0.996584 0.000000 -0.082580
    outer loop
      vertex -0.508000 -22.100000 0.000000
      vertex -0.501072 -22.000000 -0.083614
      vertex -0.501072 -22.100000 -0.083614
    endloop
  endfacet
  facet normal -0.996584 -0.000000 -0.082580
    outer loop
      vertex -0.508000 -22.000000 0.000000
      vertex -0.501072 -22.000000 -0.083614
      vertex -0.508000 -22.100000 0.000000
    endloop
  endfacet
  facet normal -0.969400 0.000000 -0.245485
    outer loop
      vertex -0.501072 -22.100000 -0.083614
      vertex -0.480475 -22.000000 -0.164947
      vertex -0.480475 -22.100000 -0.164947
    endloop
  endfacet
  facet normal -0.969400 -0.000000 -0.245485
    outer loop
      vertex -0.501072 -22.000000 -0.083614
      vertex -0.480475 -22.000000 -0.164947
      vertex -0.501072 -22.100000 -0.083614
    endloop
  endfacet
  facet normal -0.915773 0.000000 -0.401695
    outer loop
      vertex -0.480475 -22.100000 -0.164947
      vertex -0.446773 -22.000000 -0.241781
      vertex -0.446773 -22.100000 -0.241781
    endloop
  endfacet
  facet normal -0.837166 0.000000 -0.546948
    outer loop
      vertex -0.446773 -22.100000 -0.241781
      vertex -0.446773 -22.000000 -0.241781
      vertex -0.400883 -22.100000 -0.312020
    endloop
  endfacet
  facet normal -0.915773 -0.000000 -0.401695
    outer loop
      vertex -0.480475 -22.000000 -0.164947
      vertex -0.446773 -22.000000 -0.241781
      vertex -0.480475 -22.100000 -0.164947
    endloop
  endfacet
  facet normal -0.837166 0.000000 -0.546948
    outer loop
      vertex -0.446773 -22.000000 -0.241781
      vertex -0.400883 -22.000000 -0.312020
      vertex -0.400883 -22.100000 -0.312020
    endloop
  endfacet
  facet normal -0.735724 0.000000 -0.677282
    outer loop
      vertex -0.400883 -22.100000 -0.312020
      vertex -0.344059 -22.000000 -0.373748
      vertex -0.344059 -22.100000 -0.373748
    endloop
  endfacet
  facet normal -0.614213 0.000000 -0.789140
    outer loop
      vertex -0.344059 -22.100000 -0.373748
      vertex -0.344059 -22.000000 -0.373748
      vertex -0.277850 -22.100000 -0.425281
    endloop
  endfacet
  facet normal -0.735724 -0.000000 -0.677282
    outer loop
      vertex -0.400883 -22.000000 -0.312020
      vertex -0.344059 -22.000000 -0.373748
      vertex -0.400883 -22.100000 -0.312020
    endloop
  endfacet
  facet normal -0.475947 0.000000 -0.879474
    outer loop
      vertex -0.277850 -22.100000 -0.425281
      vertex -0.277850 -22.000000 -0.425281
      vertex -0.204061 -22.100000 -0.465213
    endloop
  endfacet
  facet normal -0.614213 0.000000 -0.789140
    outer loop
      vertex -0.344059 -22.000000 -0.373748
      vertex -0.277850 -22.000000 -0.425281
      vertex -0.277850 -22.100000 -0.425281
    endloop
  endfacet
  facet normal -0.324699 0.000000 -0.945817
    outer loop
      vertex -0.204061 -22.100000 -0.465213
      vertex -0.204061 -22.000000 -0.465213
      vertex -0.124707 -22.100000 -0.492455
    endloop
  endfacet
  facet normal -0.475947 0.000000 -0.879474
    outer loop
      vertex -0.277850 -22.000000 -0.425281
      vertex -0.204061 -22.000000 -0.465213
      vertex -0.204061 -22.100000 -0.465213
    endloop
  endfacet
  facet normal -0.324699 0.000000 -0.945817
    outer loop
      vertex -0.204061 -22.000000 -0.465213
      vertex -0.124707 -22.000000 -0.492455
      vertex -0.124707 -22.100000 -0.492455
    endloop
  endfacet
  facet normal -0.164595 0.000000 -0.986361
    outer loop
      vertex -0.124707 -22.100000 -0.492455
      vertex -0.041950 -22.000000 -0.506265
      vertex -0.041950 -22.100000 -0.506265
    endloop
  endfacet
  facet normal 0.000000 0.000000 -1.000000
    outer loop
      vertex -0.041950 -22.100000 -0.506265
      vertex -0.041950 -22.000000 -0.506265
      vertex 0.041950 -22.100000 -0.506265
    endloop
  endfacet
  facet normal -0.164595 -0.000000 -0.986361
    outer loop
      vertex -0.124707 -22.000000 -0.492455
      vertex -0.041950 -22.000000 -0.506265
      vertex -0.124707 -22.100000 -0.492455
    endloop
  endfacet
  facet normal 0.000000 0.000000 -1.000000
    outer loop
      vertex -0.041950 -22.000000 -0.506265
      vertex 0.041950 -22.000000 -0.506265
      vertex 0.041950 -22.100000 -0.506265
    endloop
  endfacet
  facet normal 0.164595 0.000000 -0.986361
    outer loop
      vertex 0.041950 -22.000000 -0.506265
      vertex 0.124707 -22.000000 -0.492455
      vertex 0.041950 -22.100000 -0.506265
    endloop
  endfacet
  facet normal 0.164595 0.000000 -0.986361
    outer loop
      vertex 0.041950 -22.100000 -0.506265
      vertex 0.124707 -22.000000 -0.492455
      vertex 0.124707 -22.100000 -0.492455
    endloop
  endfacet
  facet normal 0.324699 0.000000 -0.945817
    outer loop
      vertex 0.124707 -22.000000 -0.492455
      vertex 0.204061 -22.000000 -0.465213
      vertex 0.124707 -22.100000 -0.492455
    endloop
  endfacet
  facet normal 0.324699 0.000000 -0.945817
    outer loop
      vertex 0.124707 -22.100000 -0.492455
      vertex 0.204061 -22.000000 -0.465213
      vertex 0.204061 -22.100000 -0.465213
    endloop
  endfacet
  facet normal 0.475947 0.000000 -0.879474
    outer loop
      vertex 0.204061 -22.000000 -0.465213
      vertex 0.277850 -22.000000 -0.425281
      vertex 0.204061 -22.100000 -0.465213
    endloop
  endfacet
  facet normal 0.475947 0.000000 -0.879474
    outer loop
      vertex 0.204061 -22.100000 -0.465213
      vertex 0.277850 -22.000000 -0.425281
      vertex 0.277850 -22.100000 -0.425281
    endloop
  endfacet
  facet normal 0.614213 0.000000 -0.789140
    outer loop
      vertex 0.277850 -22.100000 -0.425281
      vertex 0.277850 -22.000000 -0.425281
      vertex 0.344059 -22.100000 -0.373748
    endloop
  endfacet
  facet normal 0.614213 0.000000 -0.789140
    outer loop
      vertex 0.277850 -22.000000 -0.425281
      vertex 0.344059 -22.000000 -0.373748
      vertex 0.344059 -22.100000 -0.373748
    endloop
  endfacet
  facet normal 0.735724 0.000000 -0.677282
    outer loop
      vertex 0.344059 -22.000000 -0.373748
      vertex 0.400883 -22.000000 -0.312020
      vertex 0.344059 -22.100000 -0.373748
    endloop
  endfacet
  facet normal 0.735724 0.000000 -0.677282
    outer loop
      vertex 0.344059 -22.100000 -0.373748
      vertex 0.400883 -22.000000 -0.312020
      vertex 0.400883 -22.100000 -0.312020
    endloop
  endfacet
  facet normal 0.837166 0.000000 -0.546948
    outer loop
      vertex 0.400883 -22.000000 -0.312020
      vertex 0.446773 -22.000000 -0.241781
      vertex 0.400883 -22.100000 -0.312020
    endloop
  endfacet
  facet normal 0.837166 0.000000 -0.546948
    outer loop
      vertex 0.400883 -22.100000 -0.312020
      vertex 0.446773 -22.000000 -0.241781
      vertex 0.446773 -22.100000 -0.241781
    endloop
  endfacet
  facet normal 0.915773 0.000000 -0.401695
    outer loop
      vertex 0.446773 -22.000000 -0.241781
      vertex 0.480475 -22.000000 -0.164947
      vertex 0.446773 -22.100000 -0.241781
    endloop
  endfacet
  facet normal 0.915773 0.000000 -0.401695
    outer loop
      vertex 0.446773 -22.100000 -0.241781
      vertex 0.480475 -22.000000 -0.164947
      vertex 0.480475 -22.100000 -0.164947
    endloop
  endfacet
  facet normal 0.969400 0.000000 -0.245485
    outer loop
      vertex 0.480475 -22.000000 -0.164947
      vertex 0.501072 -22.000000 -0.083614
      vertex 0.480475 -22.100000 -0.164947
    endloop
  endfacet
  facet normal 0.969400 0.000000 -0.245485
    outer loop
      vertex 0.480475 -22.100000 -0.164947
      vertex 0.501072 -22.000000 -0.083614
      vertex 0.501072 -22.100000 -0.083614
    endloop
  endfacet
  facet normal 0.996584 0.000000 -0.082580
    outer loop
      vertex 0.501072 -22.100000 -0.083614
      vertex 0.501072 -22.000000 -0.083614
      vertex 0.508000 -22.100000 0.000000
    endloop
  endfacet
  facet normal 0.996584 0.000000 -0.082580
    outer loop
      vertex 0.501072 -22.000000 -0.083614
      vertex 0.508000 -22.000000 0.000000
      vertex 0.508000 -22.100000 0.000000
    endloop
  endfacet
  facet normal 0.000000 1.000000 0.000000
    outer loop
      vertex 0.400883 -22.000000 -0.312020
      vertex 0.344059 -22.000000 -0.373748
      vertex 0.277850 -22.000000 -0.425281
    endloop
  endfacet
  facet normal 0.000000 1.000000 0.000000
    outer loop
      vertex -0.204061 -22.000000 0.465213
      vertex -0.344059 -22.000000 0.373748
      vertex -0.277850 -22.000000 0.425281
    endloop
  endfacet
  facet normal 0.000000 1.000000 0.000000
    outer loop
      vertex -0.204061 -22.000000 0.465213
      vertex -0.400883 -22.000000 0.312020
      vertex -0.344059 -22.000000 0.373748
    endloop
  endfacet
  facet normal 0.000000 1.000000 0.000000
    outer loop
      vertex -0.124707 -22.000000 0.492455
      vertex -0.400883 -22.000000 0.312020
      vertex -0.204061 -22.000000 0.465213
    endloop
  endfacet
  facet normal 0.000000 1.000000 0.000000
    outer loop
      vertex 0.501072 -22.000000 -0.083614
      vertex 0.480475 -22.000000 -0.164947
      vertex 0.446773 -22.000000 -0.241781
    endloop
  endfacet
  facet normal 0.000000 1.000000 0.000000
    outer loop
      vertex 0.041950 -22.000000 0.506265
      vertex -0.124707 -22.000000 0.492455
      vertex -0.041950 -22.000000 0.506265
    endloop
  endfacet
  facet normal 0.000000 1.000000 0.000000
    outer loop
      vertex 0.204061 -22.000000 0.465213
      vertex 0.041950 -22.000000 0.506265
      vertex 0.124707 -22.000000 0.492455
    endloop
  endfacet
  facet normal 0.000000 1.000000 0.000000
    outer loop
      vertex 0.344059 -22.000000 0.373748
      vertex 0.501072 -22.000000 0.083614
      vertex 0.508000 -22.000000 0.000000
    endloop
  endfacet
  facet normal 0.000000 1.000000 0.000000
    outer loop
      vertex 0.344059 -22.000000 0.373748
      vertex 0.480475 -22.000000 0.164947
      vertex 0.501072 -22.000000 0.083614
    endloop
  endfacet
  facet normal 0.000000 1.000000 0.000000
    outer loop
      vertex 0.344059 -22.000000 0.373748
      vertex 0.446773 -22.000000 0.241781
      vertex 0.480475 -22.000000 0.164947
    endloop
  endfacet
  facet normal 0.000000 1.000000 0.000000
    outer loop
      vertex 0.344059 -22.000000 0.373748
      vertex 0.400883 -22.000000 0.312020
      vertex 0.446773 -22.000000 0.241781
    endloop
  endfacet
  facet normal 0.000000 1.000000 0.000000
    outer loop
      vertex 0.344059 -22.000000 0.373748
      vertex 0.204061 -22.000000 0.465213
      vertex 0.277850 -22.000000 0.425281
    endloop
  endfacet
  facet normal 0.000000 1.000000 0.000000
    outer loop
      vertex 0.344059 -22.000000 0.373748
      vertex -0.446773 -22.000000 0.241781
      vertex -0.400883 -22.000000 0.312020
    endloop
  endfacet
  facet normal 0.000000 1.000000 0.000000
    outer loop
      vertex 0.344059 -22.000000 0.373748
      vertex -0.480475 -22.000000 0.164947
      vertex -0.446773 -22.000000 0.241781
    endloop
  endfacet
  facet normal 0.000000 1.000000 0.000000
    outer loop
      vertex 0.344059 -22.000000 0.373748
      vertex -0.501072 -22.000000 0.083614
      vertex -0.480475 -22.000000 0.164947
    endloop
  endfacet
  facet normal 0.000000 1.000000 0.000000
    outer loop
      vertex 0.344059 -22.000000 0.373748
      vertex -0.508000 -22.000000 0.000000
      vertex -0.501072 -22.000000 0.083614
    endloop
  endfacet
  facet normal 0.000000 1.000000 0.000000
    outer loop
      vertex 0.344059 -22.000000 0.373748
      vertex -0.501072 -22.000000 -0.083614
      vertex -0.508000 -22.000000 0.000000
    endloop
  endfacet
  facet normal 0.000000 1.000000 0.000000
    outer loop
      vertex 0.344059 -22.000000 0.373748
      vertex -0.480475 -22.000000 -0.164947
      vertex -0.501072 -22.000000 -0.083614
    endloop
  endfacet
  facet normal 0.000000 1.000000 0.000000
    outer loop
      vertex 0.344059 -22.000000 0.373748
      vertex -0.446773 -22.000000 -0.241781
      vertex -0.480475 -22.000000 -0.164947
    endloop
  endfacet
  facet normal 0.000000 1.000000 0.000000
    outer loop
      vertex 0.344059 -22.000000 0.373748
      vertex -0.400883 -22.000000 -0.312020
      vertex -0.446773 -22.000000 -0.241781
    endloop
  endfacet
  facet normal 0.000000 1.000000 0.000000
    outer loop
      vertex 0.344059 -22.000000 0.373748
      vertex -0.344059 -22.000000 -0.373748
      vertex -0.400883 -22.000000 -0.312020
    endloop
  endfacet
  facet normal 0.000000 1.000000 0.000000
    outer loop
      vertex 0.344059 -22.000000 0.373748
      vertex -0.277850 -22.000000 -0.425281
      vertex -0.344059 -22.000000 -0.373748
    endloop
  endfacet
  facet normal 0.000000 1.000000 0.000000
    outer loop
      vertex 0.344059 -22.000000 0.373748
      vertex -0.204061 -22.000000 -0.465213
      vertex -0.277850 -22.000000 -0.425281
    endloop
  endfacet
  facet normal 0.000000 1.000000 0.000000
    outer loop
      vertex 0.344059 -22.000000 0.373748
      vertex -0.124707 -22.000000 -0.492455
      vertex -0.204061 -22.000000 -0.465213
    endloop
  endfacet
  facet normal 0.000000 1.000000 0.000000
    outer loop
      vertex 0.344059 -22.000000 0.373748
      vertex -0.041950 -22.000000 -0.506265
      vertex -0.124707 -22.000000 -0.492455
    endloop
  endfacet
  facet normal 0.000000 1.000000 0.000000
    outer loop
      vertex 0.344059 -22.000000 0.373748
      vertex 0.041950 -22.000000 -0.506265
      vertex -0.041950 -22.000000 -0.506265
    endloop
  endfacet
  facet normal 0.000000 1.000000 0.000000
    outer loop
      vertex 0.344059 -22.000000 0.373748
      vertex 0.124707 -22.000000 -0.492455
      vertex 0.041950 -22.000000 -0.506265
    endloop
  endfacet
  facet normal 0.000000 1.000000 0.000000
    outer loop
      vertex 0.344059 -22.000000 0.373748
      vertex 0.204061 -22.000000 -0.465213
      vertex 0.124707 -22.000000 -0.492455
    endloop
  endfacet
  facet normal 0.000000 1.000000 0.000000
    outer loop
      vertex 0.344059 -22.000000 0.373748
      vertex 0.277850 -22.000000 -0.425281
      vertex 0.204061 -22.000000 -0.465213
    endloop
  endfacet
  facet normal 0.000000 1.000000 0.000000
    outer loop
      vertex 0.344059 -22.000000 0.373748
      vertex 0.446773 -22.000000 -0.241781
      vertex 0.400883 -22.000000 -0.312020
    endloop
  endfacet
  facet normal 0.000000 1.000000 0.000000
    outer loop
      vertex 0.344059 -22.000000 0.373748
      vertex 0.508000 -22.000000 0.000000
      vertex 0.501072 -22.000000 -0.083614
    endloop
  endfacet
  facet normal 0.000000 1.000000 0.000000
    outer loop
      vertex 0.344059 -22.000000 0.373748
      vertex 0.400883 -22.000000 -0.312020
      vertex 0.277850 -22.000000 -0.425281
    endloop
  endfacet
  facet normal 0.000000 1.000000 0.000000
    outer loop
      vertex 0.344059 -22.000000 0.373748
      vertex 0.501072 -22.000000 -0.083614
      vertex 0.446773 -22.000000 -0.241781
    endloop
  endfacet
  facet normal 0.000000 1.000000 0.000000
    outer loop
      vertex 0.344059 -22.000000 0.373748
      vertex 0.041950 -22.000000 0.506265
      vertex 0.204061 -22.000000 0.465213
    endloop
  endfacet
  facet normal 0.000000 1.000000 0.000000
    outer loop
      vertex 0.344059 -22.000000 0.373748
      vertex -0.400883 -22.000000 0.312020
      vertex -0.124707 -22.000000 0.492455
    endloop
  endfacet
  facet normal 0.000000 1.000000 0.000000
    outer loop
      vertex 0.344059 -22.000000 0.373748
      vertex -0.124707 -22.000000 0.492455
      vertex 0.041950 -22.000000 0.506265
    endloop
  endfacet
  facet normal 0.000000 -1.000000 0.000000
    outer loop
      vertex -0.400883 -22.100000 0.312020
      vertex -0.277850 -22.100000 0.425281
      vertex -0.344059 -22.100000 0.373748
    endloop
  endfacet
  facet normal 0.000000 -1.000000 0.000000
    outer loop
      vertex -0.041950 -22.100000 0.506265
      vertex 0.124707 -22.100000 0.492455
      vertex 0.041950 -22.100000 0.506265
    endloop
  endfacet
  facet normal 0.000000 -1.000000 0.000000
    outer loop
      vertex -0.041950 -22.100000 0.506265
      vertex 0.204061 -22.100000 0.465213
      vertex 0.124707 -22.100000 0.492455
    endloop
  endfacet
  facet normal 0.000000 -1.000000 0.000000
    outer loop
      vertex -0.124707 -22.100000 0.492455
      vertex 0.204061 -22.100000 0.465213
      vertex -0.041950 -22.100000 0.506265
    endloop
  endfacet
  facet normal -0.000000 -1.000000 -0.000000
    outer loop
      vertex 0.501072 -22.100000 0.083614
      vertex 0.400883 -22.100000 0.312020
      vertex 0.508000 -22.100000 0.000000
    endloop
  endfacet
  facet normal -0.000000 -1.000000 -0.000000
    outer loop
      vertex 0.480475 -22.100000 0.164947
      vertex 0.400883 -22.100000 0.312020
      vertex 0.501072 -22.100000 0.083614
    endloop
  endfacet
  facet normal -0.000000 -1.000000 -0.000000
    outer loop
      vertex 0.446773 -22.100000 0.241781
      vertex 0.400883 -22.100000 0.312020
      vertex 0.480475 -22.100000 0.164947
    endloop
  endfacet
  facet normal 0.000000 -1.000000 0.000000
    outer loop
      vertex 0.204061 -22.100000 0.465213
      vertex 0.344059 -22.100000 0.373748
      vertex 0.277850 -22.100000 0.425281
    endloop
  endfacet
  facet normal 0.000000 -1.000000 0.000000
    outer loop
      vertex -0.204061 -22.100000 0.465213
      vertex 0.344059 -22.100000 0.373748
      vertex -0.124707 -22.100000 0.492455
    endloop
  endfacet
  facet normal 0.000000 -1.000000 0.000000
    outer loop
      vertex -0.277850 -22.100000 0.425281
      vertex 0.344059 -22.100000 0.373748
      vertex -0.204061 -22.100000 0.465213
    endloop
  endfacet
  facet normal 0.000000 -1.000000 0.000000
    outer loop
      vertex -0.446773 -22.100000 0.241781
      vertex 0.344059 -22.100000 0.373748
      vertex -0.400883 -22.100000 0.312020
    endloop
  endfacet
  facet normal 0.000000 -1.000000 0.000000
    outer loop
      vertex -0.480475 -22.100000 0.164947
      vertex 0.344059 -22.100000 0.373748
      vertex -0.446773 -22.100000 0.241781
    endloop
  endfacet
  facet normal 0.000000 -1.000000 0.000000
    outer loop
      vertex -0.501072 -22.100000 0.083614
      vertex 0.344059 -22.100000 0.373748
      vertex -0.480475 -22.100000 0.164947
    endloop
  endfacet
  facet normal 0.000000 -1.000000 0.000000
    outer loop
      vertex -0.508000 -22.100000 0.000000
      vertex 0.344059 -22.100000 0.373748
      vertex -0.501072 -22.100000 0.083614
    endloop
  endfacet
  facet normal 0.000000 -1.000000 0.000000
    outer loop
      vertex -0.501072 -22.100000 -0.083614
      vertex 0.344059 -22.100000 0.373748
      vertex -0.508000 -22.100000 0.000000
    endloop
  endfacet
  facet normal 0.000000 -1.000000 0.000000
    outer loop
      vertex -0.480475 -22.100000 -0.164947
      vertex 0.344059 -22.100000 0.373748
      vertex -0.501072 -22.100000 -0.083614
    endloop
  endfacet
  facet normal 0.000000 -1.000000 0.000000
    outer loop
      vertex -0.446773 -22.100000 -0.241781
      vertex 0.344059 -22.100000 0.373748
      vertex -0.480475 -22.100000 -0.164947
    endloop
  endfacet
  facet normal 0.000000 -1.000000 0.000000
    outer loop
      vertex -0.400883 -22.100000 -0.312020
      vertex 0.344059 -22.100000 0.373748
      vertex -0.446773 -22.100000 -0.241781
    endloop
  endfacet
  facet normal 0.000000 -1.000000 0.000000
    outer loop
      vertex -0.344059 -22.100000 -0.373748
      vertex 0.344059 -22.100000 0.373748
      vertex -0.400883 -22.100000 -0.312020
    endloop
  endfacet
  facet normal 0.000000 -1.000000 0.000000
    outer loop
      vertex -0.277850 -22.100000 -0.425281
      vertex 0.344059 -22.100000 0.373748
      vertex -0.344059 -22.100000 -0.373748
    endloop
  endfacet
  facet normal 0.000000 -1.000000 0.000000
    outer loop
      vertex -0.204061 -22.100000 -0.465213
      vertex 0.344059 -22.100000 0.373748
      vertex -0.277850 -22.100000 -0.425281
    endloop
  endfacet
  facet normal 0.000000 -1.000000 0.000000
    outer loop
      vertex -0.124707 -22.100000 -0.492455
      vertex 0.344059 -22.100000 0.373748
      vertex -0.204061 -22.100000 -0.465213
    endloop
  endfacet
  facet normal 0.000000 -1.000000 0.000000
    outer loop
      vertex -0.041950 -22.100000 -0.506265
      vertex 0.344059 -22.100000 0.373748
      vertex -0.124707 -22.100000 -0.492455
    endloop
  endfacet
  facet normal 0.000000 -1.000000 0.000000
    outer loop
      vertex 0.041950 -22.100000 -0.506265
      vertex 0.344059 -22.100000 0.373748
      vertex -0.041950 -22.100000 -0.506265
    endloop
  endfacet
  facet normal -0.000000 -1.000000 0.000000
    outer loop
      vertex 0.124707 -22.100000 -0.492455
      vertex 0.344059 -22.100000 0.373748
      vertex 0.041950 -22.100000 -0.506265
    endloop
  endfacet
  facet normal -0.000000 -1.000000 0.000000
    outer loop
      vertex 0.204061 -22.100000 -0.465213
      vertex 0.344059 -22.100000 0.373748
      vertex 0.124707 -22.100000 -0.492455
    endloop
  endfacet
  facet normal -0.000000 -1.000000 0.000000
    outer loop
      vertex 0.277850 -22.100000 -0.425281
      vertex 0.344059 -22.100000 0.373748
      vertex 0.204061 -22.100000 -0.465213
    endloop
  endfacet
  facet normal -0.000000 -1.000000 0.000000
    outer loop
      vertex 0.344059 -22.100000 -0.373748
      vertex 0.344059 -22.100000 0.373748
      vertex 0.277850 -22.100000 -0.425281
    endloop
  endfacet
  facet normal -0.000000 -1.000000 0.000000
    outer loop
      vertex 0.400883 -22.100000 -0.312020
      vertex 0.344059 -22.100000 0.373748
      vertex 0.344059 -22.100000 -0.373748
    endloop
  endfacet
  facet normal -0.000000 -1.000000 0.000000
    outer loop
      vertex 0.446773 -22.100000 -0.241781
      vertex 0.344059 -22.100000 0.373748
      vertex 0.400883 -22.100000 -0.312020
    endloop
  endfacet
  facet normal -0.000000 -1.000000 0.000000
    outer loop
      vertex 0.480475 -22.100000 -0.164947
      vertex 0.344059 -22.100000 0.373748
      vertex 0.446773 -22.100000 -0.241781
    endloop
  endfacet
  facet normal -0.000000 -1.000000 0.000000
    outer loop
      vertex 0.501072 -22.100000 -0.083614
      vertex 0.344059 -22.100000 0.373748
      vertex 0.480475 -22.100000 -0.164947
    endloop
  endfacet
  facet normal -0.000000 -1.000000 0.000000
    outer loop
      vertex 0.508000 -22.100000 0.000000
      vertex 0.344059 -22.100000 0.373748
      vertex 0.501072 -22.100000 -0.083614
    endloop
  endfacet
  facet normal -0.000000 -1.000000 -0.000000
    outer loop
      vertex 0.400883 -22.100000 0.312020
      vertex 0.344059 -22.100000 0.373748
      vertex 0.508000 -22.100000 0.000000
    endloop
  endfacet
  facet normal 0.000000 -1.000000 0.000000
    outer loop
      vertex -0.124707 -22.100000 0.492455
      vertex 0.344059 -22.100000 0.373748
      vertex 0.204061 -22.100000 0.465213
    endloop
  endfacet
  facet normal 0.000000 -1.000000 0.000000
    outer loop
      vertex -0.400883 -22.100000 0.312020
      vertex 0.344059 -22.100000 0.373748
      vertex -0.277850 -22.100000 0.425281
    endloop
  endfacet
endsolid Mesh
