solid Mesh
  facet normal 0.258819 0.000000 -0.965926
    outer loop
      vertex 0.088561 2.900000 -0.502252
      vertex 0.088561 3.000000 -0.502252
      vertex 0.174430 3.000000 -0.479243
    endloop
  endfacet
  facet normal 0.087155 0.000000 -0.996195
    outer loop
      vertex 0.088561 2.900000 -0.502252
      vertex 0.000000 3.000000 -0.510000
      vertex 0.088561 3.000000 -0.502252
    endloop
  endfacet
  facet normal 0.087155 0.000000 -0.996195
    outer loop
      vertex 0.088561 2.900000 -0.502252
      vertex 0.000000 2.900000 -0.510000
      vertex 0.000000 3.000000 -0.510000
    endloop
  endfacet
  facet normal 0.422618 0.000000 -0.906308
    outer loop
      vertex 0.174430 2.900000 -0.479243
      vertex 0.174430 3.000000 -0.479243
      vertex 0.255000 3.000000 -0.441673
    endloop
  endfacet
  facet normal 0.258819 0.000000 -0.965926
    outer loop
      vertex 0.174430 2.900000 -0.479243
      vertex 0.088561 2.900000 -0.502252
      vertex 0.174430 3.000000 -0.479243
    endloop
  endfacet
  facet normal 0.573576 0.000000 -0.819152
    outer loop
      vertex 0.255000 2.900000 -0.441673
      vertex 0.255000 3.000000 -0.441673
      vertex 0.327822 3.000000 -0.390683
    endloop
  endfacet
  facet normal 0.422618 0.000000 -0.906308
    outer loop
      vertex 0.255000 2.900000 -0.441673
      vertex 0.174430 2.900000 -0.479243
      vertex 0.255000 3.000000 -0.441673
    endloop
  endfacet
  facet normal 0.707107 0.000000 -0.707107
    outer loop
      vertex 0.327822 2.900000 -0.390683
      vertex 0.327822 3.000000 -0.390683
      vertex 0.390683 3.000000 -0.327822
    endloop
  endfacet
  facet normal 0.573576 0.000000 -0.819152
    outer loop
      vertex 0.327822 2.900000 -0.390683
      vertex 0.255000 2.900000 -0.441673
      vertex 0.327822 3.000000 -0.390683
    endloop
  endfacet
  facet normal 0.707107 0.000000 -0.707107
    outer loop
      vertex 0.390683 2.900000 -0.327822
      vertex 0.327822 2.900000 -0.390683
      vertex 0.390683 3.000000 -0.327822
    endloop
  endfacet
  facet normal 0.906308 0.000000 -0.422618
    outer loop
      vertex 0.441673 2.900000 -0.255000
      vertex 0.441673 3.000000 -0.255000
      vertex 0.479243 3.000000 -0.174430
    endloop
  endfacet
  facet normal 0.819152 0.000000 -0.573576
    outer loop
      vertex 0.441673 2.900000 -0.255000
      vertex 0.390683 3.000000 -0.327822
      vertex 0.441673 3.000000 -0.255000
    endloop
  endfacet
  facet normal 0.819152 0.000000 -0.573576
    outer loop
      vertex 0.441673 2.900000 -0.255000
      vertex 0.390683 2.900000 -0.327822
      vertex 0.390683 3.000000 -0.327822
    endloop
  endfacet
  facet normal 0.965926 0.000000 -0.258819
    outer loop
      vertex 0.479243 2.900000 -0.174430
      vertex 0.479243 3.000000 -0.174430
      vertex 0.502252 3.000000 -0.088561
    endloop
  endfacet
  facet normal 0.906308 0.000000 -0.422618
    outer loop
      vertex 0.479243 2.900000 -0.174430
      vertex 0.441673 2.900000 -0.255000
      vertex 0.479243 3.000000 -0.174430
    endloop
  endfacet
  facet normal 0.965926 0.000000 -0.258819
    outer loop
      vertex 0.502252 2.900000 -0.088561
      vertex 0.479243 2.900000 -0.174430
      vertex 0.502252 3.000000 -0.088561
    endloop
  endfacet
  facet normal 0.996195 0.000000 0.087155
    outer loop
      vertex 0.510000 2.900000 0.000000
      vertex 0.510000 3.000000 0.000000
      vertex 0.502252 3.000000 0.088561
    endloop
  endfacet
  facet normal 0.996195 -0.000000 -0.087155
    outer loop
      vertex 0.510000 2.900000 0.000000
      vertex 0.502252 3.000000 -0.088561
      vertex 0.510000 3.000000 0.000000
    endloop
  endfacet
  facet normal 0.996195 0.000000 -0.087155
    outer loop
      vertex 0.510000 2.900000 0.000000
      vertex 0.502252 2.900000 -0.088561
      vertex 0.502252 3.000000 -0.088561
    endloop
  endfacet
  facet normal 0.996195 -0.000000 0.087155
    outer loop
      vertex 0.502252 2.900000 0.088561
      vertex 0.510000 2.900000 0.000000
      vertex 0.502252 3.000000 0.088561
    endloop
  endfacet
  facet normal 0.965926 -0.000000 0.258819
    outer loop
      vertex 0.479243 2.900000 0.174430
      vertex 0.502252 3.000000 0.088561
      vertex 0.479243 3.000000 0.174430
    endloop
  endfacet
  facet normal 0.965926 0.000000 0.258819
    outer loop
      vertex 0.479243 2.900000 0.174430
      vertex 0.502252 2.900000 0.088561
      vertex 0.502252 3.000000 0.088561
    endloop
  endfacet
  facet normal 0.906308 -0.000000 0.422618
    outer loop
      vertex 0.441673 2.900000 0.255000
      vertex 0.479243 3.000000 0.174430
      vertex 0.441673 3.000000 0.255000
    endloop
  endfacet
  facet normal 0.906308 0.000000 0.422618
    outer loop
      vertex 0.441673 2.900000 0.255000
      vertex 0.479243 2.900000 0.174430
      vertex 0.479243 3.000000 0.174430
    endloop
  endfacet
  facet normal 0.819152 -0.000000 0.573576
    outer loop
      vertex 0.390683 2.900000 0.327822
      vertex 0.441673 3.000000 0.255000
      vertex 0.390683 3.000000 0.327822
    endloop
  endfacet
  facet normal 0.819152 0.000000 0.573576
    outer loop
      vertex 0.390683 2.900000 0.327822
      vertex 0.441673 2.900000 0.255000
      vertex 0.441673 3.000000 0.255000
    endloop
  endfacet
  facet normal 0.707107 -0.000000 0.707107
    outer loop
      vertex 0.327822 2.900000 0.390683
      vertex 0.390683 3.000000 0.327822
      vertex 0.327822 3.000000 0.390683
    endloop
  endfacet
  facet normal 0.707107 0.000000 0.707107
    outer loop
      vertex 0.327822 2.900000 0.390683
      vertex 0.390683 2.900000 0.327822
      vertex 0.390683 3.000000 0.327822
    endloop
  endfacet
  facet normal 0.573576 0.000000 0.819152
    outer loop
      vertex 0.255000 2.900000 0.441673
      vertex 0.327822 2.900000 0.390683
      vertex 0.327822 3.000000 0.390683
    endloop
  endfacet
  facet normal 0.573576 -0.000000 0.819152
    outer loop
      vertex 0.255000 2.900000 0.441673
      vertex 0.327822 3.000000 0.390683
      vertex 0.255000 3.000000 0.441673
    endloop
  endfacet
  facet normal 0.422618 0.000000 0.906308
    outer loop
      vertex 0.174430 2.900000 0.479243
      vertex 0.255000 2.900000 0.441673
      vertex 0.255000 3.000000 0.441673
    endloop
  endfacet
  facet normal 0.422618 -0.000000 0.906308
    outer loop
      vertex 0.174430 2.900000 0.479243
      vertex 0.255000 3.000000 0.441673
      vertex 0.174430 3.000000 0.479243
    endloop
  endfacet
  facet normal 0.258819 -0.000000 0.965926
    outer loop
      vertex 0.088561 2.900000 0.502252
      vertex 0.174430 3.000000 0.479243
      vertex 0.088561 3.000000 0.502252
    endloop
  endfacet
  facet normal 0.258819 0.000000 0.965926
    outer loop
      vertex 0.088561 2.900000 0.502252
      vertex 0.174430 2.900000 0.479243
      vertex 0.174430 3.000000 0.479243
    endloop
  endfacet
  facet normal 0.087155 -0.000000 0.996195
    outer loop
      vertex 0.000000 2.900000 0.510000
      vertex 0.088561 3.000000 0.502252
      vertex 0.000000 3.000000 0.510000
    endloop
  endfacet
  facet normal 0.087155 0.000000 0.996195
    outer loop
      vertex 0.000000 2.900000 0.510000
      vertex 0.088561 2.900000 0.502252
      vertex 0.088561 3.000000 0.502252
    endloop
  endfacet
  facet normal 0.000000 1.000000 0.000000
    outer loop
      vertex -0.327822 2.900000 0.390683
      vertex -0.390683 2.900000 0.327822
      vertex -0.600000 2.900000 0.600000
    endloop
  endfacet
  facet normal 0.000000 1.000000 0.000000
    outer loop
      vertex -0.600000 2.900000 0.600000
      vertex -0.255000 2.900000 0.441673
      vertex -0.327822 2.900000 0.390683
    endloop
  endfacet
  facet normal 0.000000 1.000000 0.000000
    outer loop
      vertex -0.390683 2.900000 0.327822
      vertex -0.441673 2.900000 0.255000
      vertex -0.600000 2.900000 0.600000
    endloop
  endfacet
  facet normal 0.000000 1.000000 0.000000
    outer loop
      vertex -0.600000 2.900000 0.600000
      vertex -0.174430 2.900000 0.479243
      vertex -0.255000 2.900000 0.441673
    endloop
  endfacet
  facet normal 0.000000 1.000000 0.000000
    outer loop
      vertex -0.441673 2.900000 0.255000
      vertex -0.479243 2.900000 0.174430
      vertex -0.600000 2.900000 0.600000
    endloop
  endfacet
  facet normal 0.000000 1.000000 0.000000
    outer loop
      vertex -0.600000 2.900000 0.600000
      vertex -0.088561 2.900000 0.502252
      vertex -0.174430 2.900000 0.479243
    endloop
  endfacet
  facet normal 0.000000 1.000000 0.000000
    outer loop
      vertex -0.479243 2.900000 0.174430
      vertex -0.502252 2.900000 0.088561
      vertex -0.600000 2.900000 0.600000
    endloop
  endfacet
  facet normal 0.000000 1.000000 0.000000
    outer loop
      vertex -0.600000 2.900000 0.600000
      vertex 0.000000 2.900000 0.510000
      vertex -0.088561 2.900000 0.502252
    endloop
  endfacet
  facet normal 0.000000 1.000000 0.000000
    outer loop
      vertex -0.502252 2.900000 0.088561
      vertex -0.510000 2.900000 -0.000000
      vertex -0.600000 2.900000 0.600000
    endloop
  endfacet
  facet normal -0.000000 1.000000 0.000000
    outer loop
      vertex 0.000000 2.900000 0.510000
      vertex 0.600000 2.900000 0.600000
      vertex 0.088561 2.900000 0.502252
    endloop
  endfacet
  facet normal -0.000000 1.000000 0.000000
    outer loop
      vertex 0.088561 2.900000 0.502252
      vertex 0.600000 2.900000 0.600000
      vertex 0.174430 2.900000 0.479243
    endloop
  endfacet
  facet normal -0.000000 1.000000 0.000000
    outer loop
      vertex 0.174430 2.900000 0.479243
      vertex 0.600000 2.900000 0.600000
      vertex 0.255000 2.900000 0.441673
    endloop
  endfacet
  facet normal -0.000000 1.000000 0.000000
    outer loop
      vertex 0.255000 2.900000 0.441673
      vertex 0.600000 2.900000 0.600000
      vertex 0.327822 2.900000 0.390683
    endloop
  endfacet
  facet normal 0.000000 1.000000 0.000000
    outer loop
      vertex -0.390683 2.900000 -0.327822
      vertex -0.600000 2.900000 -0.600000
      vertex -0.441673 2.900000 -0.255000
    endloop
  endfacet
  facet normal 0.000000 1.000000 0.000000
    outer loop
      vertex -0.441673 2.900000 -0.255000
      vertex -0.600000 2.900000 -0.600000
      vertex -0.479243 2.900000 -0.174430
    endloop
  endfacet
  facet normal 0.000000 1.000000 0.000000
    outer loop
      vertex -0.479243 2.900000 -0.174430
      vertex -0.600000 2.900000 -0.600000
      vertex -0.502252 2.900000 -0.088561
    endloop
  endfacet
  facet normal 0.000000 1.000000 0.000000
    outer loop
      vertex -0.502252 2.900000 -0.088561
      vertex -0.600000 2.900000 -0.600000
      vertex -0.510000 2.900000 -0.000000
    endloop
  endfacet
  facet normal 0.000000 1.000000 0.000000
    outer loop
      vertex -0.510000 2.900000 -0.000000
      vertex -0.600000 2.900000 -0.600000
      vertex -0.600000 2.900000 0.600000
    endloop
  endfacet
  facet normal 0.000000 1.000000 0.000000
    outer loop
      vertex 0.600000 2.900000 0.600000
      vertex 0.390683 2.900000 0.327822
      vertex 0.327822 2.900000 0.390683
    endloop
  endfacet
  facet normal 0.000000 1.000000 0.000000
    outer loop
      vertex -0.390683 2.900000 -0.327822
      vertex -0.327822 2.900000 -0.390683
      vertex -0.600000 2.900000 -0.600000
    endloop
  endfacet
  facet normal 0.000000 1.000000 0.000000
    outer loop
      vertex 0.600000 2.900000 0.600000
      vertex 0.441673 2.900000 0.255000
      vertex 0.390683 2.900000 0.327822
    endloop
  endfacet
  facet normal 0.000000 1.000000 0.000000
    outer loop
      vertex -0.327822 2.900000 -0.390683
      vertex -0.255000 2.900000 -0.441673
      vertex -0.600000 2.900000 -0.600000
    endloop
  endfacet
  facet normal 0.000000 1.000000 0.000000
    outer loop
      vertex 0.600000 2.900000 0.600000
      vertex 0.479243 2.900000 0.174430
      vertex 0.441673 2.900000 0.255000
    endloop
  endfacet
  facet normal 0.000000 1.000000 0.000000
    outer loop
      vertex -0.255000 2.900000 -0.441673
      vertex -0.174430 2.900000 -0.479243
      vertex -0.600000 2.900000 -0.600000
    endloop
  endfacet
  facet normal 0.000000 1.000000 0.000000
    outer loop
      vertex 0.600000 2.900000 0.600000
      vertex 0.502252 2.900000 0.088561
      vertex 0.479243 2.900000 0.174430
    endloop
  endfacet
  facet normal 0.000000 1.000000 0.000000
    outer loop
      vertex -0.174430 2.900000 -0.479243
      vertex -0.088561 2.900000 -0.502252
      vertex -0.600000 2.900000 -0.600000
    endloop
  endfacet
  facet normal 0.000000 1.000000 0.000000
    outer loop
      vertex -0.088561 2.900000 -0.502252
      vertex 0.000000 2.900000 -0.510000
      vertex -0.600000 2.900000 -0.600000
    endloop
  endfacet
  facet normal 0.000000 1.000000 0.000000
    outer loop
      vertex 0.502252 2.900000 -0.088561
      vertex 0.600000 2.900000 -0.600000
      vertex 0.479243 2.900000 -0.174430
    endloop
  endfacet
  facet normal 0.000000 1.000000 0.000000
    outer loop
      vertex 0.479243 2.900000 -0.174430
      vertex 0.600000 2.900000 -0.600000
      vertex 0.441673 2.900000 -0.255000
    endloop
  endfacet
  facet normal 0.000000 1.000000 0.000000
    outer loop
      vertex 0.441673 2.900000 -0.255000
      vertex 0.600000 2.900000 -0.600000
      vertex 0.390683 2.900000 -0.327822
    endloop
  endfacet
  facet normal 0.000000 1.000000 0.000000
    outer loop
      vertex 0.390683 2.900000 -0.327822
      vertex 0.600000 2.900000 -0.600000
      vertex 0.327822 2.900000 -0.390683
    endloop
  endfacet
  facet normal 0.000000 1.000000 0.000000
    outer loop
      vertex 0.327822 2.900000 -0.390683
      vertex 0.600000 2.900000 -0.600000
      vertex 0.255000 2.900000 -0.441673
    endloop
  endfacet
  facet normal 0.000000 1.000000 0.000000
    outer loop
      vertex 0.255000 2.900000 -0.441673
      vertex 0.600000 2.900000 -0.600000
      vertex 0.174430 2.900000 -0.479243
    endloop
  endfacet
  facet normal 0.000000 1.000000 0.000000
    outer loop
      vertex 0.174430 2.900000 -0.479243
      vertex 0.600000 2.900000 -0.600000
      vertex 0.088561 2.900000 -0.502252
    endloop
  endfacet
  facet normal 0.000000 1.000000 0.000000
    outer loop
      vertex 0.088561 2.900000 -0.502252
      vertex 0.600000 2.900000 -0.600000
      vertex 0.000000 2.900000 -0.510000
    endloop
  endfacet
  facet normal 0.000000 1.000000 0.000000
    outer loop
      vertex 0.600000 2.900000 -0.600000
      vertex -0.600000 2.900000 -0.600000
      vertex 0.000000 2.900000 -0.510000
    endloop
  endfacet
  facet normal 0.000000 1.000000 0.000000
    outer loop
      vertex 0.600000 2.900000 0.600000
      vertex 0.600000 2.900000 -0.600000
      vertex 0.510000 2.900000 0.000000
    endloop
  endfacet
  facet normal 0.000000 1.000000 0.000000
    outer loop
      vertex 0.600000 2.900000 0.600000
      vertex 0.510000 2.900000 0.000000
      vertex 0.502252 2.900000 0.088561
    endloop
  endfacet
  facet normal 0.000000 1.000000 0.000000
    outer loop
      vertex 0.510000 2.900000 0.000000
      vertex 0.600000 2.900000 -0.600000
      vertex 0.502252 2.900000 -0.088561
    endloop
  endfacet
  facet normal -0.000000 1.000000 0.000000
    outer loop
      vertex -0.600000 2.900000 0.600000
      vertex 0.600000 2.900000 0.600000
      vertex 0.000000 2.900000 0.510000
    endloop
  endfacet
  facet normal -1.000000 -0.000000 -0.000000
    outer loop
      vertex -0.600000 2.900000 0.600000
      vertex -0.600000 2.900000 -0.600000
      vertex -0.600000 2.850000 0.600000
    endloop
  endfacet
  facet normal -1.000000 0.000000 0.000000
    outer loop
      vertex -0.600000 2.850000 0.600000
      vertex -0.600000 2.900000 -0.600000
      vertex -0.600000 2.850000 -0.600000
    endloop
  endfacet
  facet normal 0.000000 0.000000 -1.000000
    outer loop
      vertex -0.600000 2.900000 -0.600000
      vertex 0.600000 2.900000 -0.600000
      vertex -0.600000 2.850000 -0.600000
    endloop
  endfacet
  facet normal 0.000000 0.000000 -1.000000
    outer loop
      vertex -0.600000 2.850000 -0.600000
      vertex 0.600000 2.900000 -0.600000
      vertex 0.600000 2.850000 -0.600000
    endloop
  endfacet
  facet normal 1.000000 0.000000 -0.000000
    outer loop
      vertex 0.600000 2.900000 -0.600000
      vertex 0.600000 2.900000 0.600000
      vertex 0.600000 2.850000 -0.600000
    endloop
  endfacet
  facet normal 1.000000 0.000000 0.000000
    outer loop
      vertex 0.600000 2.850000 -0.600000
      vertex 0.600000 2.900000 0.600000
      vertex 0.600000 2.850000 0.600000
    endloop
  endfacet
  facet normal 0.000000 0.000000 1.000000
    outer loop
      vertex 0.600000 2.900000 0.600000
      vertex -0.600000 2.900000 0.600000
      vertex 0.600000 2.850000 0.600000
    endloop
  endfacet
  facet normal 0.000000 0.000000 1.000000
    outer loop
      vertex 0.600000 2.850000 0.600000
      vertex -0.600000 2.900000 0.600000
      vertex -0.600000 2.850000 0.600000
    endloop
  endfacet
  facet normal 0.000000 -1.000000 0.000000
    outer loop
      vertex 0.600000 2.850000 -0.600000
      vertex -0.600000 2.850000 0.600000
      vertex -0.600000 2.850000 -0.600000
    endloop
  endfacet
  facet normal 0.000000 -1.000000 0.000000
    outer loop
      vertex 0.600000 2.850000 -0.600000
      vertex 0.600000 2.850000 0.600000
      vertex -0.600000 2.850000 0.600000
    endloop
  endfacet
  facet normal -0.087155 0.000000 0.996195
    outer loop
      vertex -0.088561 2.900000 0.502252
      vertex 0.000000 2.900000 0.510000
      vertex 0.000000 3.000000 0.510000
    endloop
  endfacet
  facet normal -0.087155 0.000000 0.996195
    outer loop
      vertex -0.088561 2.900000 0.502252
      vertex 0.000000 3.000000 0.510000
      vertex -0.088561 3.000000 0.502252
    endloop
  endfacet
  facet normal -0.258819 0.000000 0.965926
    outer loop
      vertex -0.174430 2.900000 0.479243
      vertex -0.088561 3.000000 0.502252
      vertex -0.174430 3.000000 0.479243
    endloop
  endfacet
  facet normal -0.258819 0.000000 0.965926
    outer loop
      vertex -0.174430 2.900000 0.479243
      vertex -0.088561 2.900000 0.502252
      vertex -0.088561 3.000000 0.502252
    endloop
  endfacet
  facet normal -0.422618 0.000000 0.906308
    outer loop
      vertex -0.255000 2.900000 0.441673
      vertex -0.174430 3.000000 0.479243
      vertex -0.255000 3.000000 0.441673
    endloop
  endfacet
  facet normal -0.422618 0.000000 0.906308
    outer loop
      vertex -0.255000 2.900000 0.441673
      vertex -0.174430 2.900000 0.479243
      vertex -0.174430 3.000000 0.479243
    endloop
  endfacet
  facet normal -0.573576 0.000000 0.819152
    outer loop
      vertex -0.327822 2.900000 0.390683
      vertex -0.255000 3.000000 0.441673
      vertex -0.327822 3.000000 0.390683
    endloop
  endfacet
  facet normal -0.573576 0.000000 0.819152
    outer loop
      vertex -0.327822 2.900000 0.390683
      vertex -0.255000 2.900000 0.441673
      vertex -0.255000 3.000000 0.441673
    endloop
  endfacet
  facet normal -0.707107 0.000000 0.707107
    outer loop
      vertex -0.390683 2.900000 0.327822
      vertex -0.327822 3.000000 0.390683
      vertex -0.390683 3.000000 0.327822
    endloop
  endfacet
  facet normal -0.707107 0.000000 0.707107
    outer loop
      vertex -0.390683 2.900000 0.327822
      vertex -0.327822 2.900000 0.390683
      vertex -0.327822 3.000000 0.390683
    endloop
  endfacet
  facet normal -0.819152 0.000000 0.573576
    outer loop
      vertex -0.441673 2.900000 0.255000
      vertex -0.390683 3.000000 0.327822
      vertex -0.441673 3.000000 0.255000
    endloop
  endfacet
  facet normal -0.819152 0.000000 0.573576
    outer loop
      vertex -0.441673 2.900000 0.255000
      vertex -0.390683 2.900000 0.327822
      vertex -0.390683 3.000000 0.327822
    endloop
  endfacet
  facet normal -0.906308 0.000000 0.422618
    outer loop
      vertex -0.479243 2.900000 0.174430
      vertex -0.441673 3.000000 0.255000
      vertex -0.479243 3.000000 0.174430
    endloop
  endfacet
  facet normal -0.906308 0.000000 0.422618
    outer loop
      vertex -0.479243 2.900000 0.174430
      vertex -0.441673 2.900000 0.255000
      vertex -0.441673 3.000000 0.255000
    endloop
  endfacet
  facet normal -0.965926 0.000000 0.258819
    outer loop
      vertex -0.502252 2.900000 0.088561
      vertex -0.479243 3.000000 0.174430
      vertex -0.502252 3.000000 0.088561
    endloop
  endfacet
  facet normal -0.965926 0.000000 0.258819
    outer loop
      vertex -0.502252 2.900000 0.088561
      vertex -0.479243 2.900000 0.174430
      vertex -0.479243 3.000000 0.174430
    endloop
  endfacet
  facet normal -0.996195 0.000000 0.087155
    outer loop
      vertex -0.510000 2.900000 -0.000000
      vertex -0.502252 3.000000 0.088561
      vertex -0.510000 3.000000 -0.000000
    endloop
  endfacet
  facet normal -0.996195 0.000000 0.087155
    outer loop
      vertex -0.510000 2.900000 -0.000000
      vertex -0.502252 2.900000 0.088561
      vertex -0.502252 3.000000 0.088561
    endloop
  endfacet
  facet normal -0.996195 0.000000 -0.087155
    outer loop
      vertex -0.502252 2.900000 -0.088561
      vertex -0.510000 3.000000 -0.000000
      vertex -0.502252 3.000000 -0.088561
    endloop
  endfacet
  facet normal -0.996195 0.000000 -0.087155
    outer loop
      vertex -0.502252 2.900000 -0.088561
      vertex -0.510000 2.900000 -0.000000
      vertex -0.510000 3.000000 -0.000000
    endloop
  endfacet
  facet normal -0.965926 0.000000 -0.258819
    outer loop
      vertex -0.479243 2.900000 -0.174430
      vertex -0.502252 3.000000 -0.088561
      vertex -0.479243 3.000000 -0.174430
    endloop
  endfacet
  facet normal -0.965926 0.000000 -0.258819
    outer loop
      vertex -0.479243 2.900000 -0.174430
      vertex -0.502252 2.900000 -0.088561
      vertex -0.502252 3.000000 -0.088561
    endloop
  endfacet
  facet normal -0.906308 0.000000 -0.422618
    outer loop
      vertex -0.441673 2.900000 -0.255000
      vertex -0.479243 3.000000 -0.174430
      vertex -0.441673 3.000000 -0.255000
    endloop
  endfacet
  facet normal -0.906308 0.000000 -0.422618
    outer loop
      vertex -0.441673 2.900000 -0.255000
      vertex -0.479243 2.900000 -0.174430
      vertex -0.479243 3.000000 -0.174430
    endloop
  endfacet
  facet normal -0.819152 0.000000 -0.573576
    outer loop
      vertex -0.390683 2.900000 -0.327822
      vertex -0.441673 3.000000 -0.255000
      vertex -0.390683 3.000000 -0.327822
    endloop
  endfacet
  facet normal -0.819152 0.000000 -0.573576
    outer loop
      vertex -0.390683 2.900000 -0.327822
      vertex -0.441673 2.900000 -0.255000
      vertex -0.441673 3.000000 -0.255000
    endloop
  endfacet
  facet normal -0.707107 0.000000 -0.707107
    outer loop
      vertex -0.327822 2.900000 -0.390683
      vertex -0.390683 3.000000 -0.327822
      vertex -0.327822 3.000000 -0.390683
    endloop
  endfacet
  facet normal -0.707107 0.000000 -0.707107
    outer loop
      vertex -0.327822 2.900000 -0.390683
      vertex -0.390683 2.900000 -0.327822
      vertex -0.390683 3.000000 -0.327822
    endloop
  endfacet
  facet normal -0.573576 0.000000 -0.819152
    outer loop
      vertex -0.255000 2.900000 -0.441673
      vertex -0.327822 2.900000 -0.390683
      vertex -0.327822 3.000000 -0.390683
    endloop
  endfacet
  facet normal -0.573576 0.000000 -0.819152
    outer loop
      vertex -0.255000 2.900000 -0.441673
      vertex -0.327822 3.000000 -0.390683
      vertex -0.255000 3.000000 -0.441673
    endloop
  endfacet
  facet normal -0.422618 0.000000 -0.906308
    outer loop
      vertex -0.174430 2.900000 -0.479243
      vertex -0.255000 2.900000 -0.441673
      vertex -0.255000 3.000000 -0.441673
    endloop
  endfacet
  facet normal -0.422618 0.000000 -0.906308
    outer loop
      vertex -0.174430 2.900000 -0.479243
      vertex -0.255000 3.000000 -0.441673
      vertex -0.174430 3.000000 -0.479243
    endloop
  endfacet
  facet normal -0.258819 0.000000 -0.965926
    outer loop
      vertex -0.088561 2.900000 -0.502252
      vertex -0.174430 3.000000 -0.479243
      vertex -0.088561 3.000000 -0.502252
    endloop
  endfacet
  facet normal -0.258819 0.000000 -0.965926
    outer loop
      vertex -0.088561 2.900000 -0.502252
      vertex -0.174430 2.900000 -0.479243
      vertex -0.174430 3.000000 -0.479243
    endloop
  endfacet
  facet normal -0.087155 0.000000 -0.996195
    outer loop
      vertex 0.000000 2.900000 -0.510000
      vertex -0.088561 3.000000 -0.502252
      vertex 0.000000 3.000000 -0.510000
    endloop
  endfacet
  facet normal -0.087155 0.000000 -0.996195
    outer loop
      vertex 0.000000 2.900000 -0.510000
      vertex -0.088561 2.900000 -0.502252
      vertex -0.088561 3.000000 -0.502252
    endloop
  endfacet
  facet normal 0.000000 1.000000 0.000000
    outer loop
      vertex -0.174430 3.000000 0.479243
      vertex -0.390683 3.000000 0.327822
      vertex -0.327822 3.000000 0.390683
    endloop
  endfacet
  facet normal 0.000000 1.000000 0.000000
    outer loop
      vertex -0.174430 3.000000 0.479243
      vertex -0.327822 3.000000 0.390683
      vertex -0.255000 3.000000 0.441673
    endloop
  endfacet
  facet normal 0.000000 1.000000 0.000000
    outer loop
      vertex 0.502252 3.000000 -0.088561
      vertex 0.479243 3.000000 -0.174430
      vertex 0.441673 3.000000 -0.255000
    endloop
  endfacet
  facet normal 0.000000 1.000000 0.000000
    outer loop
      vertex 0.502252 3.000000 -0.088561
      vertex 0.441673 3.000000 -0.255000
      vertex 0.390683 3.000000 -0.327822
    endloop
  endfacet
  facet normal 0.000000 1.000000 0.000000
    outer loop
      vertex 0.502252 3.000000 -0.088561
      vertex 0.390683 3.000000 -0.327822
      vertex 0.327822 3.000000 -0.390683
    endloop
  endfacet
  facet normal 0.000000 1.000000 0.000000
    outer loop
      vertex 0.088561 3.000000 0.502252
      vertex -0.088561 3.000000 0.502252
      vertex 0.000000 3.000000 0.510000
    endloop
  endfacet
  facet normal 0.000000 1.000000 0.000000
    outer loop
      vertex 0.441673 3.000000 0.255000
      vertex 0.479243 3.000000 0.174430
      vertex 0.502252 3.000000 0.088561
    endloop
  endfacet
  facet normal 0.000000 1.000000 0.000000
    outer loop
      vertex 0.390683 3.000000 0.327822
      vertex 0.000000 3.000000 -0.510000
      vertex -0.088561 3.000000 -0.502252
    endloop
  endfacet
  facet normal 0.000000 1.000000 0.000000
    outer loop
      vertex 0.390683 3.000000 0.327822
      vertex -0.088561 3.000000 -0.502252
      vertex -0.174430 3.000000 -0.479243
    endloop
  endfacet
  facet normal 0.000000 1.000000 0.000000
    outer loop
      vertex 0.390683 3.000000 0.327822
      vertex -0.174430 3.000000 -0.479243
      vertex -0.255000 3.000000 -0.441673
    endloop
  endfacet
  facet normal 0.000000 1.000000 0.000000
    outer loop
      vertex 0.390683 3.000000 0.327822
      vertex -0.255000 3.000000 -0.441673
      vertex -0.327822 3.000000 -0.390683
    endloop
  endfacet
  facet normal 0.000000 1.000000 0.000000
    outer loop
      vertex 0.390683 3.000000 0.327822
      vertex -0.327822 3.000000 -0.390683
      vertex -0.390683 3.000000 -0.327822
    endloop
  endfacet
  facet normal 0.000000 1.000000 0.000000
    outer loop
      vertex 0.390683 3.000000 0.327822
      vertex -0.390683 3.000000 -0.327822
      vertex -0.441673 3.000000 -0.255000
    endloop
  endfacet
  facet normal 0.000000 1.000000 0.000000
    outer loop
      vertex 0.390683 3.000000 0.327822
      vertex -0.441673 3.000000 -0.255000
      vertex -0.479243 3.000000 -0.174430
    endloop
  endfacet
  facet normal 0.000000 1.000000 0.000000
    outer loop
      vertex 0.390683 3.000000 0.327822
      vertex -0.479243 3.000000 -0.174430
      vertex -0.502252 3.000000 -0.088561
    endloop
  endfacet
  facet normal 0.000000 1.000000 0.000000
    outer loop
      vertex 0.390683 3.000000 0.327822
      vertex -0.502252 3.000000 -0.088561
      vertex -0.510000 3.000000 -0.000000
    endloop
  endfacet
  facet normal 0.000000 1.000000 0.000000
    outer loop
      vertex 0.390683 3.000000 0.327822
      vertex -0.510000 3.000000 -0.000000
      vertex -0.502252 3.000000 0.088561
    endloop
  endfacet
  facet normal 0.000000 1.000000 0.000000
    outer loop
      vertex 0.390683 3.000000 0.327822
      vertex -0.502252 3.000000 0.088561
      vertex -0.479243 3.000000 0.174430
    endloop
  endfacet
  facet normal 0.000000 1.000000 0.000000
    outer loop
      vertex 0.390683 3.000000 0.327822
      vertex -0.479243 3.000000 0.174430
      vertex -0.441673 3.000000 0.255000
    endloop
  endfacet
  facet normal 0.000000 1.000000 0.000000
    outer loop
      vertex 0.390683 3.000000 0.327822
      vertex -0.441673 3.000000 0.255000
      vertex -0.390683 3.000000 0.327822
    endloop
  endfacet
  facet normal 0.000000 1.000000 0.000000
    outer loop
      vertex 0.390683 3.000000 0.327822
      vertex -0.174430 3.000000 0.479243
      vertex -0.088561 3.000000 0.502252
    endloop
  endfacet
  facet normal 0.000000 1.000000 0.000000
    outer loop
      vertex 0.390683 3.000000 0.327822
      vertex 0.088561 3.000000 0.502252
      vertex 0.174430 3.000000 0.479243
    endloop
  endfacet
  facet normal 0.000000 1.000000 0.000000
    outer loop
      vertex 0.390683 3.000000 0.327822
      vertex 0.174430 3.000000 0.479243
      vertex 0.255000 3.000000 0.441673
    endloop
  endfacet
  facet normal 0.000000 1.000000 0.000000
    outer loop
      vertex 0.390683 3.000000 0.327822
      vertex 0.255000 3.000000 0.441673
      vertex 0.327822 3.000000 0.390683
    endloop
  endfacet
  facet normal 0.000000 1.000000 0.000000
    outer loop
      vertex 0.390683 3.000000 0.327822
      vertex 0.502252 3.000000 0.088561
      vertex 0.510000 3.000000 0.000000
    endloop
  endfacet
  facet normal 0.000000 1.000000 0.000000
    outer loop
      vertex 0.390683 3.000000 0.327822
      vertex 0.510000 3.000000 0.000000
      vertex 0.502252 3.000000 -0.088561
    endloop
  endfacet
  facet normal 0.000000 1.000000 0.000000
    outer loop
      vertex 0.390683 3.000000 0.327822
      vertex 0.327822 3.000000 -0.390683
      vertex 0.255000 3.000000 -0.441673
    endloop
  endfacet
  facet normal 0.000000 1.000000 0.000000
    outer loop
      vertex 0.390683 3.000000 0.327822
      vertex 0.255000 3.000000 -0.441673
      vertex 0.174430 3.000000 -0.479243
    endloop
  endfacet
  facet normal 0.000000 1.000000 0.000000
    outer loop
      vertex 0.390683 3.000000 0.327822
      vertex 0.174430 3.000000 -0.479243
      vertex 0.088561 3.000000 -0.502252
    endloop
  endfacet
  facet normal 0.000000 1.000000 0.000000
    outer loop
      vertex 0.390683 3.000000 0.327822
      vertex 0.088561 3.000000 -0.502252
      vertex 0.000000 3.000000 -0.510000
    endloop
  endfacet
  facet normal 0.000000 1.000000 0.000000
    outer loop
      vertex 0.390683 3.000000 0.327822
      vertex 0.502252 3.000000 -0.088561
      vertex 0.327822 3.000000 -0.390683
    endloop
  endfacet
  facet normal 0.000000 1.000000 0.000000
    outer loop
      vertex 0.390683 3.000000 0.327822
      vertex -0.390683 3.000000 0.327822
      vertex -0.174430 3.000000 0.479243
    endloop
  endfacet
  facet normal 0.000000 1.000000 0.000000
    outer loop
      vertex 0.390683 3.000000 0.327822
      vertex -0.088561 3.000000 0.502252
      vertex 0.088561 3.000000 0.502252
    endloop
  endfacet
  facet normal 0.000000 1.000000 0.000000
    outer loop
      vertex 0.390683 3.000000 0.327822
      vertex 0.441673 3.000000 0.255000
      vertex 0.502252 3.000000 0.088561
    endloop
  endfacet
endsolid Mesh
