solid Mesh
  facet normal 0.000000 0.000000 1.000000
    outer loop
      vertex 15.000000 0.000000 15.000000
      vertex -15.000000 0.000000 15.000000
      vertex -15.000000 -10.000000 15.000000
    endloop
  endfacet
  facet normal 0.000000 0.000000 1.000000
    outer loop
      vertex 15.000000 0.000000 15.000000
      vertex -15.000000 -10.000000 15.000000
      vertex 15.000000 -10.000000 15.000000
    endloop
  endfacet
  facet normal 1.000000 0.000000 -0.000000
    outer loop
      vertex 15.000000 -0.000000 -15.000000
      vertex 15.000000 0.000000 15.000000
      vertex 15.000000 -10.000000 15.000000
    endloop
  endfacet
  facet normal 1.000000 0.000000 0.000000
    outer loop
      vertex 15.000000 -0.000000 -15.000000
      vertex 15.000000 -10.000000 15.000000
      vertex 15.000000 -10.000000 -15.000000
    endloop
  endfacet
  facet normal 0.000000 0.000000 -1.000000
    outer loop
      vertex -15.000000 -0.000000 -15.000000
      vertex 15.000000 -0.000000 -15.000000
      vertex 15.000000 -10.000000 -15.000000
    endloop
  endfacet
  facet normal 0.000000 0.000000 -1.000000
    outer loop
      vertex -15.000000 -0.000000 -15.000000
      vertex 15.000000 -10.000000 -15.000000
      vertex -15.000000 -10.000000 -15.000000
    endloop
  endfacet
  facet normal -1.000000 0.000000 0.000000
    outer loop
      vertex -15.000000 -10.000000 15.000000
      vertex -15.000000 -0.000000 -15.000000
      vertex -15.000000 -10.000000 -15.000000
    endloop
  endfacet
  facet normal -1.000000 -0.000000 0.000000
    outer loop
      vertex -15.000000 0.000000 15.000000
      vertex -15.000000 -0.000000 -15.000000
      vertex -15.000000 -10.000000 15.000000
    endloop
  endfacet
  facet normal -0.995185 -0.000000 -0.098017
    outer loop
      vertex 0.050000 0.000000 0.000000
      vertex 0.050000 -10.000000 0.000000
      vertex 0.049039 -10.000000 0.009755
    endloop
  endfacet
  facet normal -0.995185 -0.000000 -0.098017
    outer loop
      vertex 0.049039 0.000000 0.009755
      vertex 0.050000 0.000000 0.000000
      vertex 0.049039 -10.000000 0.009755
    endloop
  endfacet
  facet normal -0.956940 -0.000000 -0.290285
    outer loop
      vertex 0.046194 0.000000 0.019134
      vertex 0.049039 -10.000000 0.009755
      vertex 0.046194 -10.000000 0.019134
    endloop
  endfacet
  facet normal -0.956940 0.000000 -0.290285
    outer loop
      vertex 0.046194 0.000000 0.019134
      vertex 0.049039 0.000000 0.009755
      vertex 0.049039 -10.000000 0.009755
    endloop
  endfacet
  facet normal -0.881921 -0.000000 -0.471397
    outer loop
      vertex 0.041573 0.000000 0.027779
      vertex 0.046194 -10.000000 0.019134
      vertex 0.041573 -10.000000 0.027779
    endloop
  endfacet
  facet normal -0.881921 0.000000 -0.471397
    outer loop
      vertex 0.041573 0.000000 0.027779
      vertex 0.046194 0.000000 0.019134
      vertex 0.046194 -10.000000 0.019134
    endloop
  endfacet
  facet normal -0.773011 -0.000000 -0.634393
    outer loop
      vertex 0.035355 0.000000 0.035355
      vertex 0.041573 -10.000000 0.027779
      vertex 0.035355 -10.000000 0.035355
    endloop
  endfacet
  facet normal -0.634393 -0.000000 -0.773011
    outer loop
      vertex 0.035355 0.000000 0.035355
      vertex 0.035355 -10.000000 0.035355
      vertex 0.027779 -10.000000 0.041573
    endloop
  endfacet
  facet normal -0.773011 0.000000 -0.634393
    outer loop
      vertex 0.035355 0.000000 0.035355
      vertex 0.041573 0.000000 0.027779
      vertex 0.041573 -10.000000 0.027779
    endloop
  endfacet
  facet normal -0.634393 -0.000000 -0.773011
    outer loop
      vertex 0.027779 0.000000 0.041573
      vertex 0.035355 0.000000 0.035355
      vertex 0.027779 -10.000000 0.041573
    endloop
  endfacet
  facet normal -0.471397 -0.000000 -0.881921
    outer loop
      vertex 0.019134 0.000000 0.046194
      vertex 0.027779 -10.000000 0.041573
      vertex 0.019134 -10.000000 0.046194
    endloop
  endfacet
  facet normal -0.290285 -0.000000 -0.956940
    outer loop
      vertex 0.019134 0.000000 0.046194
      vertex 0.019134 -10.000000 0.046194
      vertex 0.009755 -10.000000 0.049039
    endloop
  endfacet
  facet normal -0.471397 0.000000 -0.881921
    outer loop
      vertex 0.019134 0.000000 0.046194
      vertex 0.027779 0.000000 0.041573
      vertex 0.027779 -10.000000 0.041573
    endloop
  endfacet
  facet normal -0.290285 -0.000000 -0.956940
    outer loop
      vertex 0.009755 0.000000 0.049039
      vertex 0.019134 0.000000 0.046194
      vertex 0.009755 -10.000000 0.049039
    endloop
  endfacet
  facet normal -0.098017 0.000000 -0.995185
    outer loop
      vertex 0.000000 0.000000 0.050000
      vertex 0.009755 0.000000 0.049039
      vertex 0.009755 -10.000000 0.049039
    endloop
  endfacet
  facet normal -0.098017 -0.000000 -0.995185
    outer loop
      vertex 0.000000 0.000000 0.050000
      vertex 0.009755 -10.000000 0.049039
      vertex 0.000000 -10.000000 0.050000
    endloop
  endfacet
  facet normal 0.098017 0.000000 -0.995185
    outer loop
      vertex -0.009755 0.000000 0.049039
      vertex 0.000000 0.000000 0.050000
      vertex 0.000000 -10.000000 0.050000
    endloop
  endfacet
  facet normal 0.098017 0.000000 -0.995185
    outer loop
      vertex -0.009755 0.000000 0.049039
      vertex 0.000000 -10.000000 0.050000
      vertex -0.009755 -10.000000 0.049039
    endloop
  endfacet
  facet normal 0.290285 0.000000 -0.956940
    outer loop
      vertex -0.009755 0.000000 0.049039
      vertex -0.009755 -10.000000 0.049039
      vertex -0.019134 -10.000000 0.046194
    endloop
  endfacet
  facet normal 0.290285 0.000000 -0.956940
    outer loop
      vertex -0.019134 0.000000 0.046194
      vertex -0.009755 0.000000 0.049039
      vertex -0.019134 -10.000000 0.046194
    endloop
  endfacet
  facet normal 0.471397 0.000000 -0.881921
    outer loop
      vertex -0.027779 0.000000 0.041573
      vertex -0.019134 -10.000000 0.046194
      vertex -0.027779 -10.000000 0.041573
    endloop
  endfacet
  facet normal 0.471397 0.000000 -0.881921
    outer loop
      vertex -0.027779 0.000000 0.041573
      vertex -0.019134 0.000000 0.046194
      vertex -0.019134 -10.000000 0.046194
    endloop
  endfacet
  facet normal 0.634393 0.000000 -0.773011
    outer loop
      vertex -0.035355 0.000000 0.035355
      vertex -0.027779 -10.000000 0.041573
      vertex -0.035355 -10.000000 0.035355
    endloop
  endfacet
  facet normal 0.634393 0.000000 -0.773011
    outer loop
      vertex -0.035355 0.000000 0.035355
      vertex -0.027779 0.000000 0.041573
      vertex -0.027779 -10.000000 0.041573
    endloop
  endfacet
  facet normal 0.773011 0.000000 -0.634393
    outer loop
      vertex -0.041573 0.000000 0.027779
      vertex -0.035355 -10.000000 0.035355
      vertex -0.041573 -10.000000 0.027779
    endloop
  endfacet
  facet normal 0.773011 0.000000 -0.634393
    outer loop
      vertex -0.041573 0.000000 0.027779
      vertex -0.035355 0.000000 0.035355
      vertex -0.035355 -10.000000 0.035355
    endloop
  endfacet
  facet normal 0.881921 0.000000 -0.471397
    outer loop
      vertex -0.046194 0.000000 0.019134
      vertex -0.041573 -10.000000 0.027779
      vertex -0.046194 -10.000000 0.019134
    endloop
  endfacet
  facet normal 0.881921 0.000000 -0.471397
    outer loop
      vertex -0.046194 0.000000 0.019134
      vertex -0.041573 0.000000 0.027779
      vertex -0.041573 -10.000000 0.027779
    endloop
  endfacet
  facet normal 0.956940 0.000000 -0.290285
    outer loop
      vertex -0.049039 0.000000 0.009755
      vertex -0.046194 -10.000000 0.019134
      vertex -0.049039 -10.000000 0.009755
    endloop
  endfacet
  facet normal 0.956940 0.000000 -0.290285
    outer loop
      vertex -0.049039 0.000000 0.009755
      vertex -0.046194 0.000000 0.019134
      vertex -0.046194 -10.000000 0.019134
    endloop
  endfacet
  facet normal 0.995185 -0.000000 -0.098017
    outer loop
      vertex -0.050000 -0.000000 -0.000000
      vertex -0.049039 -10.000000 0.009755
      vertex -0.050000 -10.000000 0.000000
    endloop
  endfacet
  facet normal 0.995185 0.000000 0.098017
    outer loop
      vertex -0.050000 -0.000000 -0.000000
      vertex -0.050000 -10.000000 0.000000
      vertex -0.049039 -10.000000 -0.009755
    endloop
  endfacet
  facet normal 0.995185 0.000000 -0.098017
    outer loop
      vertex -0.050000 -0.000000 -0.000000
      vertex -0.049039 0.000000 0.009755
      vertex -0.049039 -10.000000 0.009755
    endloop
  endfacet
  facet normal 0.995185 0.000000 0.098017
    outer loop
      vertex -0.049039 -0.000000 -0.009755
      vertex -0.050000 -0.000000 -0.000000
      vertex -0.049039 -10.000000 -0.009755
    endloop
  endfacet
  facet normal 0.956940 0.000000 0.290285
    outer loop
      vertex -0.046194 -0.000000 -0.019134
      vertex -0.049039 -10.000000 -0.009755
      vertex -0.046194 -10.000000 -0.019134
    endloop
  endfacet
  facet normal 0.956940 0.000000 0.290285
    outer loop
      vertex -0.046194 -0.000000 -0.019134
      vertex -0.049039 -0.000000 -0.009755
      vertex -0.049039 -10.000000 -0.009755
    endloop
  endfacet
  facet normal 0.881921 0.000000 0.471397
    outer loop
      vertex -0.041573 -0.000000 -0.027779
      vertex -0.046194 -10.000000 -0.019134
      vertex -0.041573 -10.000000 -0.027779
    endloop
  endfacet
  facet normal 0.773011 0.000000 0.634393
    outer loop
      vertex -0.041573 -0.000000 -0.027779
      vertex -0.041573 -10.000000 -0.027779
      vertex -0.035355 -10.000000 -0.035355
    endloop
  endfacet
  facet normal 0.881921 0.000000 0.471397
    outer loop
      vertex -0.041573 -0.000000 -0.027779
      vertex -0.046194 -0.000000 -0.019134
      vertex -0.046194 -10.000000 -0.019134
    endloop
  endfacet
  facet normal 0.773011 0.000000 0.634393
    outer loop
      vertex -0.035355 -0.000000 -0.035355
      vertex -0.041573 -0.000000 -0.027779
      vertex -0.035355 -10.000000 -0.035355
    endloop
  endfacet
  facet normal 0.634393 0.000000 0.773011
    outer loop
      vertex -0.027779 -0.000000 -0.041573
      vertex -0.035355 -10.000000 -0.035355
      vertex -0.027779 -10.000000 -0.041573
    endloop
  endfacet
  facet normal 0.471397 0.000000 0.881921
    outer loop
      vertex -0.027779 -0.000000 -0.041573
      vertex -0.027779 -10.000000 -0.041573
      vertex -0.019134 -10.000000 -0.046194
    endloop
  endfacet
  facet normal 0.634393 0.000000 0.773011
    outer loop
      vertex -0.027779 -0.000000 -0.041573
      vertex -0.035355 -0.000000 -0.035355
      vertex -0.035355 -10.000000 -0.035355
    endloop
  endfacet
  facet normal 0.290285 0.000000 0.956940
    outer loop
      vertex -0.019134 -0.000000 -0.046194
      vertex -0.019134 -10.000000 -0.046194
      vertex -0.009755 -10.000000 -0.049039
    endloop
  endfacet
  facet normal 0.471397 0.000000 0.881921
    outer loop
      vertex -0.019134 -0.000000 -0.046194
      vertex -0.027779 -0.000000 -0.041573
      vertex -0.019134 -10.000000 -0.046194
    endloop
  endfacet
  facet normal 0.098017 0.000000 0.995185
    outer loop
      vertex -0.009755 -0.000000 -0.049039
      vertex -0.009755 -10.000000 -0.049039
      vertex 0.000000 -10.000000 -0.050000
    endloop
  endfacet
  facet normal 0.290285 0.000000 0.956940
    outer loop
      vertex -0.009755 -0.000000 -0.049039
      vertex -0.019134 -0.000000 -0.046194
      vertex -0.009755 -10.000000 -0.049039
    endloop
  endfacet
  facet normal -0.098017 0.000000 0.995185
    outer loop
      vertex 0.000000 -0.000000 -0.050000
      vertex 0.000000 -10.000000 -0.050000
      vertex 0.009755 -10.000000 -0.049039
    endloop
  endfacet
  facet normal 0.098017 0.000000 0.995185
    outer loop
      vertex 0.000000 -0.000000 -0.050000
      vertex -0.009755 -0.000000 -0.049039
      vertex 0.000000 -10.000000 -0.050000
    endloop
  endfacet
  facet normal -0.098017 0.000000 0.995185
    outer loop
      vertex 0.009755 -0.000000 -0.049039
      vertex 0.000000 -0.000000 -0.050000
      vertex 0.009755 -10.000000 -0.049039
    endloop
  endfacet
  facet normal -0.290285 0.000000 0.956940
    outer loop
      vertex 0.019134 -0.000000 -0.046194
      vertex 0.009755 -10.000000 -0.049039
      vertex 0.019134 -10.000000 -0.046194
    endloop
  endfacet
  facet normal -0.290285 0.000000 0.956940
    outer loop
      vertex 0.019134 -0.000000 -0.046194
      vertex 0.009755 -0.000000 -0.049039
      vertex 0.009755 -10.000000 -0.049039
    endloop
  endfacet
  facet normal -0.471397 0.000000 0.881921
    outer loop
      vertex 0.027779 -0.000000 -0.041573
      vertex 0.019134 -10.000000 -0.046194
      vertex 0.027779 -10.000000 -0.041573
    endloop
  endfacet
  facet normal -0.634393 0.000000 0.773011
    outer loop
      vertex 0.027779 -0.000000 -0.041573
      vertex 0.027779 -10.000000 -0.041573
      vertex 0.035355 -10.000000 -0.035355
    endloop
  endfacet
  facet normal -0.471397 0.000000 0.881921
    outer loop
      vertex 0.027779 -0.000000 -0.041573
      vertex 0.019134 -0.000000 -0.046194
      vertex 0.019134 -10.000000 -0.046194
    endloop
  endfacet
  facet normal -0.634393 0.000000 0.773011
    outer loop
      vertex 0.035355 -0.000000 -0.035355
      vertex 0.027779 -0.000000 -0.041573
      vertex 0.035355 -10.000000 -0.035355
    endloop
  endfacet
  facet normal -0.773011 0.000000 0.634393
    outer loop
      vertex 0.041573 -0.000000 -0.027779
      vertex 0.035355 -10.000000 -0.035355
      vertex 0.041573 -10.000000 -0.027779
    endloop
  endfacet
  facet normal -0.773011 0.000000 0.634393
    outer loop
      vertex 0.041573 -0.000000 -0.027779
      vertex 0.035355 -0.000000 -0.035355
      vertex 0.035355 -10.000000 -0.035355
    endloop
  endfacet
  facet normal -0.881921 0.000000 0.471397
    outer loop
      vertex 0.046194 -0.000000 -0.019134
      vertex 0.041573 -10.000000 -0.027779
      vertex 0.046194 -10.000000 -0.019134
    endloop
  endfacet
  facet normal -0.881921 0.000000 0.471397
    outer loop
      vertex 0.046194 -0.000000 -0.019134
      vertex 0.041573 -0.000000 -0.027779
      vertex 0.041573 -10.000000 -0.027779
    endloop
  endfacet
  facet normal -0.956940 0.000000 0.290285
    outer loop
      vertex 0.049039 -0.000000 -0.009755
      vertex 0.046194 -10.000000 -0.019134
      vertex 0.049039 -10.000000 -0.009755
    endloop
  endfacet
  facet normal -0.956940 0.000000 0.290285
    outer loop
      vertex 0.049039 -0.000000 -0.009755
      vertex 0.046194 -0.000000 -0.019134
      vertex 0.046194 -10.000000 -0.019134
    endloop
  endfacet
  facet normal -0.995185 0.000000 0.098017
    outer loop
      vertex 0.050000 0.000000 0.000000
      vertex 0.049039 -10.000000 -0.009755
      vertex 0.050000 -10.000000 0.000000
    endloop
  endfacet
  facet normal -0.995185 0.000000 0.098017
    outer loop
      vertex 0.050000 0.000000 0.000000
      vertex 0.049039 -0.000000 -0.009755
      vertex 0.049039 -10.000000 -0.009755
    endloop
  endfacet
  facet normal 0.000000 1.000000 -0.000000
    outer loop
      vertex -0.027779 -0.000000 -0.041573
      vertex -15.000000 -0.000000 -15.000000
      vertex -0.035355 -0.000000 -0.035355
    endloop
  endfacet
  facet normal 0.000000 1.000000 -0.000000
    outer loop
      vertex -0.041573 -0.000000 -0.027779
      vertex -0.035355 -0.000000 -0.035355
      vertex -15.000000 -0.000000 -15.000000
    endloop
  endfacet
  facet normal 0.000000 1.000000 -0.000000
    outer loop
      vertex -0.019134 -0.000000 -0.046194
      vertex -15.000000 -0.000000 -15.000000
      vertex -0.027779 -0.000000 -0.041573
    endloop
  endfacet
  facet normal 0.000000 1.000000 -0.000000
    outer loop
      vertex -0.046194 -0.000000 -0.019134
      vertex -0.041573 -0.000000 -0.027779
      vertex -15.000000 -0.000000 -15.000000
    endloop
  endfacet
  facet normal 0.000000 1.000000 -0.000000
    outer loop
      vertex -0.009755 -0.000000 -0.049039
      vertex -15.000000 -0.000000 -15.000000
      vertex -0.019134 -0.000000 -0.046194
    endloop
  endfacet
  facet normal 0.000000 1.000000 -0.000000
    outer loop
      vertex -0.049039 -0.000000 -0.009755
      vertex -0.046194 -0.000000 -0.019134
      vertex -15.000000 -0.000000 -15.000000
    endloop
  endfacet
  facet normal 0.000000 1.000000 -0.000000
    outer loop
      vertex -0.050000 -0.000000 -0.000000
      vertex -0.049039 -0.000000 -0.009755
      vertex -15.000000 -0.000000 -15.000000
    endloop
  endfacet
  facet normal 0.000000 1.000000 -0.000000
    outer loop
      vertex 0.000000 -0.000000 -0.050000
      vertex -15.000000 -0.000000 -15.000000
      vertex -0.009755 -0.000000 -0.049039
    endloop
  endfacet
  facet normal 0.000000 1.000000 -0.000000
    outer loop
      vertex -15.000000 0.000000 15.000000
      vertex -0.035355 0.000000 0.035355
      vertex -0.041573 0.000000 0.027779
    endloop
  endfacet
  facet normal 0.000000 1.000000 -0.000000
    outer loop
      vertex -15.000000 0.000000 15.000000
      vertex -0.041573 0.000000 0.027779
      vertex -0.046194 0.000000 0.019134
    endloop
  endfacet
  facet normal 0.000000 1.000000 -0.000000
    outer loop
      vertex -15.000000 0.000000 15.000000
      vertex -0.046194 0.000000 0.019134
      vertex -0.049039 0.000000 0.009755
    endloop
  endfacet
  facet normal 0.000000 1.000000 -0.000000
    outer loop
      vertex -15.000000 0.000000 15.000000
      vertex -0.049039 0.000000 0.009755
      vertex -0.050000 -0.000000 -0.000000
    endloop
  endfacet
  facet normal 0.000000 1.000000 -0.000000
    outer loop
      vertex -15.000000 0.000000 15.000000
      vertex -0.050000 -0.000000 -0.000000
      vertex -15.000000 -0.000000 -15.000000
    endloop
  endfacet
  facet normal 0.000000 1.000000 -0.000000
    outer loop
      vertex 15.000000 -0.000000 -15.000000
      vertex 0.000000 -0.000000 -0.050000
      vertex 0.009755 -0.000000 -0.049039
    endloop
  endfacet
  facet normal 0.000000 1.000000 -0.000000
    outer loop
      vertex 15.000000 -0.000000 -15.000000
      vertex 0.009755 -0.000000 -0.049039
      vertex 0.019134 -0.000000 -0.046194
    endloop
  endfacet
  facet normal 0.000000 1.000000 -0.000000
    outer loop
      vertex 15.000000 -0.000000 -15.000000
      vertex 0.019134 -0.000000 -0.046194
      vertex 0.027779 -0.000000 -0.041573
    endloop
  endfacet
  facet normal 0.000000 1.000000 -0.000000
    outer loop
      vertex 15.000000 -0.000000 -15.000000
      vertex 0.027779 -0.000000 -0.041573
      vertex 0.035355 -0.000000 -0.035355
    endloop
  endfacet
  facet normal 0.000000 1.000000 -0.000000
    outer loop
      vertex 15.000000 -0.000000 -15.000000
      vertex -15.000000 -0.000000 -15.000000
      vertex 0.000000 -0.000000 -0.050000
    endloop
  endfacet
  facet normal 0.000000 1.000000 -0.000000
    outer loop
      vertex -0.027779 0.000000 0.041573
      vertex -0.035355 0.000000 0.035355
      vertex -15.000000 0.000000 15.000000
    endloop
  endfacet
  facet normal 0.000000 1.000000 -0.000000
    outer loop
      vertex 0.041573 -0.000000 -0.027779
      vertex 15.000000 -0.000000 -15.000000
      vertex 0.035355 -0.000000 -0.035355
    endloop
  endfacet
  facet normal 0.000000 1.000000 -0.000000
    outer loop
      vertex 0.046194 -0.000000 -0.019134
      vertex 15.000000 -0.000000 -15.000000
      vertex 0.041573 -0.000000 -0.027779
    endloop
  endfacet
  facet normal 0.000000 1.000000 -0.000000
    outer loop
      vertex -0.019134 0.000000 0.046194
      vertex -0.027779 0.000000 0.041573
      vertex -15.000000 0.000000 15.000000
    endloop
  endfacet
  facet normal 0.000000 1.000000 -0.000000
    outer loop
      vertex 0.049039 -0.000000 -0.009755
      vertex 15.000000 -0.000000 -15.000000
      vertex 0.046194 -0.000000 -0.019134
    endloop
  endfacet
  facet normal 0.000000 1.000000 -0.000000
    outer loop
      vertex -0.009755 0.000000 0.049039
      vertex -0.019134 0.000000 0.046194
      vertex -15.000000 0.000000 15.000000
    endloop
  endfacet
  facet normal 0.000000 1.000000 -0.000000
    outer loop
      vertex 0.050000 0.000000 0.000000
      vertex 15.000000 -0.000000 -15.000000
      vertex 0.049039 -0.000000 -0.009755
    endloop
  endfacet
  facet normal 0.000000 1.000000 -0.000000
    outer loop
      vertex 0.000000 0.000000 0.050000
      vertex -0.009755 0.000000 0.049039
      vertex -15.000000 0.000000 15.000000
    endloop
  endfacet
  facet normal 0.000000 1.000000 -0.000000
    outer loop
      vertex 15.000000 0.000000 15.000000
      vertex 0.050000 0.000000 0.000000
      vertex 0.049039 0.000000 0.009755
    endloop
  endfacet
  facet normal 0.000000 1.000000 -0.000000
    outer loop
      vertex 15.000000 0.000000 15.000000
      vertex 0.049039 0.000000 0.009755
      vertex 0.046194 0.000000 0.019134
    endloop
  endfacet
  facet normal 0.000000 1.000000 -0.000000
    outer loop
      vertex 15.000000 0.000000 15.000000
      vertex 0.046194 0.000000 0.019134
      vertex 0.041573 0.000000 0.027779
    endloop
  endfacet
  facet normal 0.000000 1.000000 -0.000000
    outer loop
      vertex 15.000000 0.000000 15.000000
      vertex 0.041573 0.000000 0.027779
      vertex 0.035355 0.000000 0.035355
    endloop
  endfacet
  facet normal 0.000000 1.000000 -0.000000
    outer loop
      vertex 15.000000 0.000000 15.000000
      vertex 0.035355 0.000000 0.035355
      vertex 0.027779 0.000000 0.041573
    endloop
  endfacet
  facet normal 0.000000 1.000000 -0.000000
    outer loop
      vertex 15.000000 0.000000 15.000000
      vertex 0.027779 0.000000 0.041573
      vertex 0.019134 0.000000 0.046194
    endloop
  endfacet
  facet normal 0.000000 1.000000 -0.000000
    outer loop
      vertex 15.000000 0.000000 15.000000
      vertex 0.019134 0.000000 0.046194
      vertex 0.009755 0.000000 0.049039
    endloop
  endfacet
  facet normal 0.000000 1.000000 -0.000000
    outer loop
      vertex 15.000000 0.000000 15.000000
      vertex 0.009755 0.000000 0.049039
      vertex 0.000000 0.000000 0.050000
    endloop
  endfacet
  facet normal 0.000000 1.000000 -0.000000
    outer loop
      vertex 15.000000 0.000000 15.000000
      vertex 0.000000 0.000000 0.050000
      vertex -15.000000 0.000000 15.000000
    endloop
  endfacet
  facet normal 0.000000 1.000000 -0.000000
    outer loop
      vertex 15.000000 0.000000 15.000000
      vertex 15.000000 -0.000000 -15.000000
      vertex 0.050000 0.000000 0.000000
    endloop
  endfacet
  facet normal 0.000000 -1.000000 0.000000
    outer loop
      vertex -15.000000 -10.000000 -15.000000
      vertex -0.027779 -10.000000 -0.041573
      vertex -0.035355 -10.000000 -0.035355
    endloop
  endfacet
  facet normal -0.000000 -1.000000 0.000000
    outer loop
      vertex -0.035355 -10.000000 -0.035355
      vertex -0.041573 -10.000000 -0.027779
      vertex -15.000000 -10.000000 -15.000000
    endloop
  endfacet
  facet normal 0.000000 -1.000000 0.000000
    outer loop
      vertex -15.000000 -10.000000 -15.000000
      vertex -0.019134 -10.000000 -0.046194
      vertex -0.027779 -10.000000 -0.041573
    endloop
  endfacet
  facet normal -0.000000 -1.000000 0.000000
    outer loop
      vertex -0.041573 -10.000000 -0.027779
      vertex -0.046194 -10.000000 -0.019134
      vertex -15.000000 -10.000000 -15.000000
    endloop
  endfacet
  facet normal 0.000000 -1.000000 0.000000
    outer loop
      vertex -15.000000 -10.000000 -15.000000
      vertex -0.009755 -10.000000 -0.049039
      vertex -0.019134 -10.000000 -0.046194
    endloop
  endfacet
  facet normal -0.000000 -1.000000 0.000000
    outer loop
      vertex -0.046194 -10.000000 -0.019134
      vertex -0.049039 -10.000000 -0.009755
      vertex -15.000000 -10.000000 -15.000000
    endloop
  endfacet
  facet normal -0.000000 -1.000000 0.000000
    outer loop
      vertex -0.049039 -10.000000 -0.009755
      vertex -0.050000 -10.000000 0.000000
      vertex -15.000000 -10.000000 -15.000000
    endloop
  endfacet
  facet normal 0.000000 -1.000000 0.000000
    outer loop
      vertex -15.000000 -10.000000 -15.000000
      vertex 0.000000 -10.000000 -0.050000
      vertex -0.009755 -10.000000 -0.049039
    endloop
  endfacet
  facet normal -0.000000 -1.000000 0.000000
    outer loop
      vertex -0.035355 -10.000000 0.035355
      vertex -15.000000 -10.000000 15.000000
      vertex -0.041573 -10.000000 0.027779
    endloop
  endfacet
  facet normal -0.000000 -1.000000 0.000000
    outer loop
      vertex -0.041573 -10.000000 0.027779
      vertex -15.000000 -10.000000 15.000000
      vertex -0.046194 -10.000000 0.019134
    endloop
  endfacet
  facet normal -0.000000 -1.000000 0.000000
    outer loop
      vertex -0.046194 -10.000000 0.019134
      vertex -15.000000 -10.000000 15.000000
      vertex -0.049039 -10.000000 0.009755
    endloop
  endfacet
  facet normal -0.000000 -1.000000 0.000000
    outer loop
      vertex -0.049039 -10.000000 0.009755
      vertex -15.000000 -10.000000 15.000000
      vertex -0.050000 -10.000000 0.000000
    endloop
  endfacet
  facet normal -0.000000 -1.000000 0.000000
    outer loop
      vertex -0.050000 -10.000000 0.000000
      vertex -15.000000 -10.000000 15.000000
      vertex -15.000000 -10.000000 -15.000000
    endloop
  endfacet
  facet normal 0.000000 -1.000000 0.000000
    outer loop
      vertex 0.000000 -10.000000 -0.050000
      vertex 15.000000 -10.000000 -15.000000
      vertex 0.009755 -10.000000 -0.049039
    endloop
  endfacet
  facet normal 0.000000 -1.000000 0.000000
    outer loop
      vertex 0.009755 -10.000000 -0.049039
      vertex 15.000000 -10.000000 -15.000000
      vertex 0.019134 -10.000000 -0.046194
    endloop
  endfacet
  facet normal 0.000000 -1.000000 0.000000
    outer loop
      vertex 0.019134 -10.000000 -0.046194
      vertex 15.000000 -10.000000 -15.000000
      vertex 0.027779 -10.000000 -0.041573
    endloop
  endfacet
  facet normal 0.000000 -1.000000 0.000000
    outer loop
      vertex 0.027779 -10.000000 -0.041573
      vertex 15.000000 -10.000000 -15.000000
      vertex 0.035355 -10.000000 -0.035355
    endloop
  endfacet
  facet normal 0.000000 -1.000000 0.000000
    outer loop
      vertex -15.000000 -10.000000 -15.000000
      vertex 15.000000 -10.000000 -15.000000
      vertex 0.000000 -10.000000 -0.050000
    endloop
  endfacet
  facet normal 0.000000 -1.000000 0.000000
    outer loop
      vertex -0.035355 -10.000000 0.035355
      vertex -0.027779 -10.000000 0.041573
      vertex -15.000000 -10.000000 15.000000
    endloop
  endfacet
  facet normal 0.000000 -1.000000 0.000000
    outer loop
      vertex 15.000000 -10.000000 -15.000000
      vertex 0.041573 -10.000000 -0.027779
      vertex 0.035355 -10.000000 -0.035355
    endloop
  endfacet
  facet normal 0.000000 -1.000000 0.000000
    outer loop
      vertex 15.000000 -10.000000 -15.000000
      vertex 0.046194 -10.000000 -0.019134
      vertex 0.041573 -10.000000 -0.027779
    endloop
  endfacet
  facet normal 0.000000 -1.000000 0.000000
    outer loop
      vertex -0.027779 -10.000000 0.041573
      vertex -0.019134 -10.000000 0.046194
      vertex -15.000000 -10.000000 15.000000
    endloop
  endfacet
  facet normal 0.000000 -1.000000 0.000000
    outer loop
      vertex 15.000000 -10.000000 -15.000000
      vertex 0.049039 -10.000000 -0.009755
      vertex 0.046194 -10.000000 -0.019134
    endloop
  endfacet
  facet normal 0.000000 -1.000000 0.000000
    outer loop
      vertex -0.019134 -10.000000 0.046194
      vertex -0.009755 -10.000000 0.049039
      vertex -15.000000 -10.000000 15.000000
    endloop
  endfacet
  facet normal 0.000000 -1.000000 0.000000
    outer loop
      vertex 15.000000 -10.000000 -15.000000
      vertex 0.050000 -10.000000 0.000000
      vertex 0.049039 -10.000000 -0.009755
    endloop
  endfacet
  facet normal 0.000000 -1.000000 0.000000
    outer loop
      vertex -0.009755 -10.000000 0.049039
      vertex 0.000000 -10.000000 0.050000
      vertex -15.000000 -10.000000 15.000000
    endloop
  endfacet
  facet normal 0.000000 -1.000000 0.000000
    outer loop
      vertex 0.050000 -10.000000 0.000000
      vertex 15.000000 -10.000000 15.000000
      vertex 0.049039 -10.000000 0.009755
    endloop
  endfacet
  facet normal 0.000000 -1.000000 0.000000
    outer loop
      vertex 0.049039 -10.000000 0.009755
      vertex 15.000000 -10.000000 15.000000
      vertex 0.046194 -10.000000 0.019134
    endloop
  endfacet
  facet normal 0.000000 -1.000000 0.000000
    outer loop
      vertex 0.046194 -10.000000 0.019134
      vertex 15.000000 -10.000000 15.000000
      vertex 0.041573 -10.000000 0.027779
    endloop
  endfacet
  facet normal 0.000000 -1.000000 0.000000
    outer loop
      vertex 0.041573 -10.000000 0.027779
      vertex 15.000000 -10.000000 15.000000
      vertex 0.035355 -10.000000 0.035355
    endloop
  endfacet
  facet normal 0.000000 -1.000000 0.000000
    outer loop
      vertex 0.035355 -10.000000 0.035355
      vertex 15.000000 -10.000000 15.000000
      vertex 0.027779 -10.000000 0.041573
    endloop
  endfacet
  facet normal 0.000000 -1.000000 0.000000
    outer loop
      vertex 0.027779 -10.000000 0.041573
      vertex 15.000000 -10.000000 15.000000
      vertex 0.019134 -10.000000 0.046194
    endloop
  endfacet
  facet normal 0.000000 -1.000000 0.000000
    outer loop
      vertex 0.019134 -10.000000 0.046194
      vertex 15.000000 -10.000000 15.000000
      vertex 0.009755 -10.000000 0.049039
    endloop
  endfacet
  facet normal 0.000000 -1.000000 0.000000
    outer loop
      vertex 0.009755 -10.000000 0.049039
      vertex 15.000000 -10.000000 15.000000
      vertex 0.000000 -10.000000 0.050000
    endloop
  endfacet
  facet normal 0.000000 -1.000000 0.000000
    outer loop
      vertex 0.000000 -10.000000 0.050000
      vertex 15.000000 -10.000000 15.000000
      vertex -15.000000 -10.000000 15.000000
    endloop
  endfacet
  facet normal 0.000000 -1.000000 0.000000
    outer loop
      vertex 15.000000 -10.000000 -15.000000
      vertex 15.000000 -10.000000 15.000000
      vertex 0.050000 -10.000000 0.000000
    endloop
  endfacet
endsolid Mesh
